<?xml version="1.0" encoding="UTF-8"?>
<svg width="18px" height="18px" viewBox="0 0 18 18" version="1.1" xmlns="http://www.w3.org/2000/svg" xmlns:xlink="http://www.w3.org/1999/xlink">
    <!-- Generator: Sketch 41 (35326) - http://www.bohemiancoding.com/sketch -->
    <title>progress_done</title>
    <desc>Created with Sketch.</desc>
    <defs></defs>
    <g id="Page-1" stroke="none" stroke-width="1" fill="none" fill-rule="evenodd">
        <g id="Artboard" transform="translate(-11.000000, -9.000000)" fill="#009e78">
            <g id="progress_done" transform="translate(11.000000, 9.000000)">
                <path d="M9,18 C13.0115681,18 16.4101302,15.3754091 17.5722061,11.7497073 C17.8500089,10.8829569 18,9.95899461 18,9 C18,8.03482338 17.8480688,7.10513219 17.5668178,6.23353768 C16.3996541,2.61650793 13.0053861,0 9,0 C4.02943725,0 0,4.02943725 0,9 C0,13.9705627 4.02943725,18 9,18 Z M14.7622833,6.58096313 L7.71799318,13.4343545 C7.65501709,13.4781184 7.59654017,13.5 7.54256066,13.5 C7.48858116,13.5 7.43010424,13.4781184 7.36712815,13.4343545 L3.23771669,9.41684921 C3.1207611,9.30306309 3.1207611,9.18927867 3.23771669,9.07549255 L4.93806259,7.42122567 C5.05501818,7.30743955 5.17197202,7.30743955 5.28892761,7.42122567 L7.54256066,9.62691484 L12.7110724,4.58533959 C12.828028,4.47155347 12.9449818,4.47155347 13.0619374,4.58533959 L14.7622833,6.23960647 C14.8792389,6.35339259 14.8792389,6.46717701 14.7622833,6.58096313 Z" id="Combined-Shape-Copy"></path>
            </g>
        </g>
    </g>
</svg>
