<svg width="32" height="32" viewBox="0 0 32 32" fill="none" xmlns="http://www.w3.org/2000/svg">
<path d="M26 31.5H6C4.6215 31.5 3.5 30.3785 3.5 29V3C3.5 1.6215 4.6215 0.5 6 0.5H16.1717C16.8395 0.5 17.4675 0.76025 17.9393 1.23225L27.7677 11.0608C28.24 11.533 28.5 12.1605 28.5 12.8282V29C28.5 30.3785 27.3785 31.5 26 31.5ZM6 1.5C5.17275 1.5 4.5 2.17275 4.5 3V29C4.5 29.8272 5.17275 30.5 6 30.5H26C26.8272 30.5 27.5 29.8272 27.5 29V12.8282C27.5 12.4335 27.3397 12.047 27.0607 11.7677L17.2323 1.93925C16.949 1.656 16.5722 1.5 16.1717 1.5H6Z" fill="#2146BD"/>
<path d="M23.8025 20.08C23.785 19.9525 23.6825 19.7925 23.5725 19.685C23.2575 19.375 22.565 19.2125 21.51 19.1975C20.795 19.19 19.935 19.2525 19.03 19.38C18.625 19.1475 18.2075 18.8925 17.88 18.585C16.9975 17.7625 16.2625 16.62 15.8025 15.3625C15.8325 15.245 15.8575 15.1425 15.8825 15.0375C15.8825 15.0375 16.3775 12.2175 16.2475 11.2625C16.23 11.1325 16.2175 11.095 16.1825 10.9925L16.14 10.8825C16.005 10.57 15.74 10.24 15.325 10.2575L15.08 10.25H15.075C14.61 10.25 14.235 10.4875 14.135 10.84C13.835 11.95 14.145 13.6125 14.7075 15.7625L14.5625 16.1125C14.16 17.0975 13.655 18.0875 13.21 18.96L13.1525 19.0725C12.6825 19.99 12.2575 20.77 11.87 21.43L11.4725 21.64C11.4425 21.655 10.76 22.0175 10.6 22.1125C9.24254 22.925 8.34254 23.845 8.19254 24.575C8.14504 24.81 8.18004 25.1075 8.42254 25.245L8.80754 25.44C8.97504 25.5225 9.15254 25.565 9.33254 25.565C10.3 25.565 11.4225 24.36 12.97 21.66C14.755 21.08 16.79 20.595 18.5725 20.33C19.93 21.0925 21.6 21.625 22.655 21.625C22.8425 21.625 23.005 21.6075 23.135 21.5725C23.3375 21.5175 23.5075 21.4025 23.6125 21.2475C23.8175 20.94 23.8575 20.515 23.8025 20.08ZM9.12254 24.8325C9.29754 24.35 9.99754 23.395 11.03 22.55C11.095 22.4975 11.255 22.3475 11.4 22.2075C10.32 23.93 9.59754 24.615 9.12254 24.8325ZM15.2375 10.75C15.5475 10.75 15.725 11.5325 15.74 12.2675C15.755 13.0025 15.5825 13.5175 15.37 13.9C15.1925 13.335 15.1075 12.445 15.1075 11.8625C15.1075 11.8625 15.095 10.75 15.2375 10.75ZM13.4125 20.785C13.63 20.3975 13.855 19.9875 14.085 19.555C14.6475 18.4925 15.0025 17.6625 15.265 16.98C15.79 17.935 16.445 18.7475 17.2125 19.3975C17.31 19.4775 17.4125 19.56 17.5175 19.6425C15.955 19.95 14.6025 20.3275 13.4125 20.785ZM23.27 20.6975C23.175 20.755 22.9025 20.79 22.7275 20.79C22.1625 20.79 21.46 20.5325 20.4775 20.11C20.855 20.0825 21.2025 20.0675 21.5125 20.0675C22.08 20.0675 22.2475 20.065 22.805 20.2075C23.36 20.35 23.3675 20.6375 23.27 20.6975Z" fill="#2146BD"/>
</svg>
