<svg width="32" height="32" viewBox="0 0 32 32" fill="none" xmlns="http://www.w3.org/2000/svg">
<path d="M26 31.5H6C4.625 31.5 3.5 30.375 3.5 29V3C3.5 1.625 4.625 0.5 6 0.5H16.175C16.85 0.5 17.475 0.75 17.95 1.225L27.775 11.05C28.25 11.525 28.5 12.15 28.5 12.825V29C28.5 30.375 27.375 31.5 26 31.5ZM6 1.5C5.175 1.5 4.5 2.175 4.5 3V29C4.5 29.825 5.175 30.5 6 30.5H26C26.825 30.5 27.5 29.825 27.5 29V12.825C27.5 12.425 27.35 12.05 27.05 11.775L17.225 1.95C16.95 1.65 16.575 1.5 16.175 1.5H6Z" fill="#2146BD"/>
<path d="M18.9997 18.0998C18.9997 19.0248 18.6997 19.7248 18.1247 20.2248C17.5497 20.7248 16.7247 20.9498 15.6747 20.9498H14.8997V23.9998H13.0747V15.4248H15.7997C16.8497 15.4248 17.6247 15.6498 18.1747 16.0998C18.7247 16.5498 18.9997 17.2248 18.9997 18.0998ZM14.8997 19.4748H15.4997C16.0497 19.4748 16.4747 19.3748 16.7497 19.1498C17.0247 18.9248 17.1747 18.5998 17.1747 18.1748C17.1747 17.7498 17.0497 17.4248 16.8247 17.2248C16.5997 17.0248 16.2247 16.9248 15.7247 16.9248H14.8997V19.4748Z" fill="#2146BD"/>
</svg>
