<svg width="32" height="32" viewBox="0 0 32 32" fill="none" xmlns="http://www.w3.org/2000/svg">
<path d="M26 31.5H6C4.625 31.5 3.5 30.375 3.5 29V3C3.5 1.625 4.625 0.5 6 0.5H16.175C16.85 0.5 17.475 0.75 17.95 1.225L27.775 11.05C28.25 11.525 28.5 12.15 28.5 12.825V29C28.5 30.375 27.375 31.5 26 31.5ZM6 1.5C5.175 1.5 4.5 2.175 4.5 3V29C4.5 29.825 5.175 30.5 6 30.5H26C26.825 30.5 27.5 29.825 27.5 29V12.825C27.5 12.425 27.35 12.05 27.05 11.775L17.225 1.95C16.95 1.65 16.575 1.5 16.175 1.5H6Z" fill="#2146BD"/>
<path d="M11.3003 22.8753C11.1253 22.8753 10.9253 22.8253 10.7753 22.7253C10.4753 22.5503 10.3003 22.2253 10.3003 21.8753V12.5003C10.3003 12.1503 10.4753 11.8253 10.7753 11.6503C11.0753 11.4753 11.4503 11.4503 11.7503 11.6253L21.1253 16.5253C21.4753 16.7003 21.6753 17.0503 21.6503 17.4253C21.6503 17.8003 21.4253 18.1503 21.0753 18.3003L11.7503 22.7753C11.6003 22.8503 11.4503 22.8753 11.3003 22.8753ZM11.3003 12.5003V21.8753L20.6753 17.4003L11.3003 12.5003Z" fill="#2146BD"/>
</svg>
