<svg width="32" height="32" viewBox="0 0 32 32" fill="none" xmlns="http://www.w3.org/2000/svg">
<path d="M26 31.5H6C4.625 31.5 3.5 30.375 3.5 29V3C3.5 1.625 4.625 0.5 6 0.5H16.175C16.85 0.5 17.475 0.75 17.95 1.225L27.775 11.05C28.25 11.525 28.5 12.15 28.5 12.825V29C28.5 30.375 27.375 31.5 26 31.5ZM6 1.5C5.175 1.5 4.5 2.175 4.5 3V29C4.5 29.825 5.175 30.5 6 30.5H26C26.825 30.5 27.5 29.825 27.5 29V12.825C27.5 12.425 27.35 12.05 27.05 11.775L17.225 1.95C16.95 1.65 16.575 1.5 16.175 1.5H6Z" fill="#2146BD"/>
<path d="M15.5017 24.0001C15.1767 24.0001 14.8517 23.9001 14.5767 23.7001L9.32666 19.6251C9.15166 19.4751 8.90166 19.4751 8.70166 19.6251L4.32666 23.1251L3.70166 22.3501L8.07666 18.8501C8.62666 18.4251 9.37666 18.4001 9.92666 18.8251L15.2017 22.8751C15.3767 23.0001 15.6267 23.0251 15.8017 22.8751L21.9017 18.2501C22.4017 17.8751 23.0767 17.8501 23.6017 18.1751L28.2767 21.0751L27.7517 21.9251L23.0767 19.0251C22.9017 18.9251 22.6767 18.9251 22.5017 19.0501L16.4017 23.6751C16.1517 23.9001 15.8267 24.0001 15.5017 24.0001Z" fill="#2146BD"/>
<path d="M13.25 14.5C11.45 14.5 10 13.05 10 11.25C10 9.45 11.45 8 13.25 8C15.05 8 16.5 9.45 16.5 11.25C16.5 13.05 15.05 14.5 13.25 14.5ZM13.25 9C12 9 11 10 11 11.25C11 12.5 12 13.5 13.25 13.5C14.5 13.5 15.5 12.5 15.5 11.25C15.5 10 14.5 9 13.25 9Z" fill="#2146BD"/>
</svg>
