<svg width="32" height="32" viewBox="0 0 32 32" fill="none" xmlns="http://www.w3.org/2000/svg">
<path d="M26 31.5H6C4.625 31.5 3.5 30.375 3.5 29V3C3.5 1.625 4.625 0.5 6 0.5H16.175C16.85 0.5 17.475 0.75 17.95 1.225L27.775 11.05C28.25 11.525 28.5 12.15 28.5 12.825V29C28.5 30.375 27.375 31.5 26 31.5ZM6 1.5C5.175 1.5 4.5 2.175 4.5 3V29C4.5 29.825 5.175 30.5 6 30.5H26C26.825 30.5 27.5 29.825 27.5 29V12.825C27.5 12.425 27.35 12.05 27.05 11.775L17.225 1.95C16.95 1.65 16.575 1.5 16.175 1.5H6Z" fill="#2146BD"/>
<path d="M14.25 22.2503H13.25V14.6253C13.25 14.1753 13.55 13.7753 13.975 13.6503L19.225 12.2753C19.525 12.2003 19.85 12.2503 20.1 12.4503C20.35 12.6503 20.5 12.9253 20.5 13.2503V20.8503H19.5V13.2503L14.25 14.6253V22.2503Z" fill="#2146BD"/>
<path d="M11.875 23.5C12.9105 23.5 13.75 22.9404 13.75 22.25C13.75 21.5596 12.9105 21 11.875 21C10.8395 21 10 21.5596 10 22.25C10 22.9404 10.8395 23.5 11.875 23.5Z" fill="#2146BD"/>
<path d="M11.875 24C10.55 24 9.5 23.225 9.5 22.25C9.5 21.275 10.55 20.5 11.875 20.5C13.2 20.5 14.25 21.275 14.25 22.25C14.25 23.225 13.2 24 11.875 24ZM11.875 21.5C11.1 21.5 10.5 21.9 10.5 22.25C10.5 22.6 11.1 23 11.875 23C12.65 23 13.25 22.6 13.25 22.25C13.25 21.9 12.65 21.5 11.875 21.5Z" fill="#2146BD"/>
<path d="M18.125 22.199C19.1605 22.199 20 21.5946 20 20.849C20 20.1034 19.1605 19.499 18.125 19.499C17.0895 19.499 16.25 20.1034 16.25 20.849C16.25 21.5946 17.0895 22.199 18.125 22.199Z" fill="#2146BD"/>
<path d="M18.125 22.6746C16.8 22.6746 15.75 21.8746 15.75 20.8246C15.75 19.7996 16.8 18.9746 18.125 18.9746C19.45 18.9746 20.5 19.7746 20.5 20.8246C20.5 21.8746 19.45 22.6746 18.125 22.6746ZM18.125 19.9996C17.4 19.9996 16.75 20.3996 16.75 20.8496C16.75 21.2496 17.325 21.6996 18.125 21.6996C18.925 21.6996 19.5 21.2496 19.5 20.8496C19.5 20.3996 18.85 19.9996 18.125 19.9996Z" fill="#2146BD"/>
</svg>
