<svg width="32" height="32" viewBox="0 0 32 32" fill="none" xmlns="http://www.w3.org/2000/svg">
<path d="M26 31.5H6C4.625 31.5 3.5 30.375 3.5 29V3C3.5 1.625 4.625 0.5 6 0.5H16.175C16.85 0.5 17.475 0.75 17.95 1.225L27.775 11.05C28.25 11.525 28.5 12.15 28.5 12.825V29C28.5 30.375 27.375 31.5 26 31.5ZM6 1.5C5.175 1.5 4.5 2.175 4.5 3V29C4.5 29.825 5.175 30.5 6 30.5H26C26.825 30.5 27.5 29.825 27.5 29V12.825C27.5 12.425 27.35 12.05 27.05 11.775L17.225 1.95C16.95 1.65 16.575 1.5 16.175 1.5H6Z" fill="#2146BD"/>
<path d="M19.675 24.0003H17.6L16.45 19.5003C16.4 19.3503 16.325 19.0003 16.225 18.5003C16.125 18.0003 16.05 17.6503 16.05 17.5003C16.025 17.7003 15.975 18.0503 15.875 18.5253C15.775 19.0003 15.7 19.3253 15.65 19.5253L14.5 24.0003H12.425L10.25 15.4253H12.025L13.125 20.1003C13.325 20.9753 13.45 21.7003 13.55 22.3503C13.575 22.1253 13.625 21.7753 13.7 21.3253C13.775 20.8753 13.875 20.5003 13.925 20.2503L15.175 15.4503H16.9L18.15 20.2503C18.2 20.4753 18.275 20.8003 18.35 21.2253C18.425 21.6503 18.5 22.0503 18.55 22.3503C18.6 22.0503 18.65 21.6753 18.75 21.2003C18.85 20.7253 18.925 20.3753 18.975 20.1003L20.075 15.4253H21.85L19.675 24.0003Z" fill="#2146BD"/>
</svg>
