<svg width="58" height="58" viewBox="0 0 58 58" fill="none" xmlns="http://www.w3.org/2000/svg">
<path d="M42.5 55.125H7.5C5.09375 55.125 3.125 53.1562 3.125 50.75V5.25C3.125 2.84375 5.09375 0.875 7.5 0.875H25.3062C26.4875 0.875 27.5813 1.3125 28.4125 2.14375L45.6063 19.3375C46.4375 20.1688 46.875 21.2625 46.875 22.4438V50.75C46.875 53.1562 44.9062 55.125 42.5 55.125ZM7.5 2.625C6.05625 2.625 4.875 3.80625 4.875 5.25V50.75C4.875 52.1937 6.05625 53.375 7.5 53.375H42.5C43.9437 53.375 45.125 52.1937 45.125 50.75V22.4438C45.125 21.7437 44.8625 21.0875 44.3375 20.6062L27.1438 3.4125C26.6625 2.8875 26.0062 2.625 25.3062 2.625H7.5Z" fill="#2146BD"/>
<path d="M24.1275 42.0002C23.5588 42.0002 22.99 41.8252 22.5088 41.4752L13.3213 34.344C13.015 34.0815 12.5775 34.0815 12.2275 34.344L4.57129 40.469L3.47754 39.1127L11.1338 32.9877C12.0963 32.244 13.4088 32.2002 14.3713 32.944L23.6025 40.0315C23.9088 40.2502 24.3463 40.294 24.6525 40.0315L35.3275 31.9377C36.2025 31.2815 37.3838 31.2377 38.3025 31.8065L46.4838 36.8815L45.565 38.369L37.3838 33.294C37.0775 33.119 36.6838 33.119 36.3775 33.3377L25.7025 41.4315C25.265 41.8252 24.6963 42.0002 24.1275 42.0002Z" fill="#2146BD"/>
<path d="M20.1875 25.375C17.0375 25.375 14.5 22.8375 14.5 19.6875C14.5 16.5375 17.0375 14 20.1875 14C23.3375 14 25.875 16.5375 25.875 19.6875C25.875 22.8375 23.3375 25.375 20.1875 25.375ZM20.1875 15.75C18 15.75 16.25 17.5 16.25 19.6875C16.25 21.875 18 23.625 20.1875 23.625C22.375 23.625 24.125 21.875 24.125 19.6875C24.125 17.5 22.375 15.75 20.1875 15.75Z" fill="#2146BD"/>
<circle cx="46" cy="46" r="11" fill="#2146BD" stroke="white" stroke-width="2"/>
<path d="M47.9429 45.207C47.9429 46.6956 46.7315 47.907 45.2429 47.907C43.7542 47.907 42.5429 46.6956 42.5429 45.207C42.5429 43.7184 43.7542 42.507 45.2429 42.507C46.7315 42.507 47.9429 43.7184 47.9429 45.207ZM51.0286 50.2213C51.0286 50.0163 50.9442 49.8175 50.8056 49.6788L48.7384 47.6117C49.2266 46.9065 49.4857 46.0628 49.4857 45.207C49.4857 42.8625 47.5873 40.9641 45.2429 40.9641C42.8984 40.9641 41 42.8625 41 45.207C41 47.5514 42.8984 49.4498 45.2429 49.4498C46.0987 49.4498 46.9424 49.1907 47.6475 48.7025L49.7147 50.7637C49.8533 50.9083 50.0522 50.9927 50.2571 50.9927C50.679 50.9927 51.0286 50.6431 51.0286 50.2213Z" fill="white"/>
</svg>
