<svg width="40" height="40" viewBox="0 0 40 40" fill="none" xmlns="http://www.w3.org/2000/svg">
<path d="M32.5 39.375H7.5C5.78125 39.375 4.375 37.9688 4.375 36.25V3.75C4.375 2.03125 5.78125 0.625 7.5 0.625H20.2187C21.0625 0.625 21.8438 0.9375 22.4375 1.53125L34.7187 13.8125C35.3125 14.4063 35.625 15.1875 35.625 16.0312V36.25C35.625 37.9688 34.2188 39.375 32.5 39.375ZM7.5 1.875C6.46875 1.875 5.625 2.71875 5.625 3.75V36.25C5.625 37.2812 6.46875 38.125 7.5 38.125H32.5C33.5312 38.125 34.375 37.2812 34.375 36.25V16.0312C34.375 15.5312 34.1875 15.0625 33.8125 14.7187L21.5313 2.4375C21.1875 2.0625 20.7187 1.875 20.2187 1.875H7.5Z" fill="#2146BD"/>
<path d="M23.7502 22.6252C23.7502 23.7815 23.3752 24.6565 22.6565 25.2815C21.9377 25.9065 20.9065 26.1877 19.594 26.1877H18.6252V30.0002H16.344V19.2815H19.7502C21.0627 19.2815 22.0315 19.5627 22.719 20.1252C23.4065 20.6877 23.7502 21.5315 23.7502 22.6252ZM18.6252 24.344H19.3752C20.0627 24.344 20.594 24.219 20.9377 23.9377C21.2815 23.6565 21.469 23.2502 21.469 22.719C21.469 22.1877 21.3127 21.7815 21.0315 21.5315C20.7502 21.2815 20.2815 21.1565 19.6565 21.1565H18.6252V24.344Z" fill="#2146BD"/>
</svg>
