<svg width="40" height="40" viewBox="0 0 40 40" fill="none" xmlns="http://www.w3.org/2000/svg">
<path d="M32.5 39.375H7.5C5.78125 39.375 4.375 37.9688 4.375 36.25V3.75C4.375 2.03125 5.78125 0.625 7.5 0.625H20.2187C21.0625 0.625 21.8438 0.9375 22.4375 1.53125L34.7187 13.8125C35.3125 14.4063 35.625 15.1875 35.625 16.0312V36.25C35.625 37.9688 34.2188 39.375 32.5 39.375ZM7.5 1.875C6.46875 1.875 5.625 2.71875 5.625 3.75V36.25C5.625 37.2812 6.46875 38.125 7.5 38.125H32.5C33.5312 38.125 34.375 37.2812 34.375 36.25V16.0312C34.375 15.5312 34.1875 15.0625 33.8125 14.7187L21.5313 2.4375C21.1875 2.0625 20.7187 1.875 20.2187 1.875H7.5Z" fill="#2146BD"/>
<path d="M14.1248 28.594C13.906 28.594 13.656 28.5315 13.4685 28.4065C13.0935 28.1877 12.8748 27.7815 12.8748 27.344V15.6252C12.8748 15.1877 13.0935 14.7815 13.4685 14.5627C13.8435 14.344 14.3123 14.3127 14.6873 14.5315L26.406 20.6565C26.8435 20.8752 27.0935 21.3127 27.0623 21.7815C27.0623 22.2502 26.781 22.6877 26.3435 22.8752L14.6873 28.469C14.4998 28.5627 14.3123 28.594 14.1248 28.594ZM14.1248 15.6252V27.344L25.8435 21.7502L14.1248 15.6252Z" fill="#2146BD"/>
</svg>
