<svg width="40" height="40" viewBox="0 0 40 40" fill="none" xmlns="http://www.w3.org/2000/svg">
<path d="M32.5 39.375H7.5C5.78125 39.375 4.375 37.9688 4.375 36.25V3.75C4.375 2.03125 5.78125 0.625 7.5 0.625H20.2187C21.0625 0.625 21.8438 0.9375 22.4375 1.53125L34.7187 13.8125C35.3125 14.4063 35.625 15.1875 35.625 16.0312V36.25C35.625 37.9688 34.2188 39.375 32.5 39.375ZM7.5 1.875C6.46875 1.875 5.625 2.71875 5.625 3.75V36.25C5.625 37.2812 6.46875 38.125 7.5 38.125H32.5C33.5312 38.125 34.375 37.2812 34.375 36.25V16.0312C34.375 15.5312 34.1875 15.0625 33.8125 14.7187L21.5313 2.4375C21.1875 2.0625 20.7187 1.875 20.2187 1.875H7.5Z" fill="#2146BD"/>
<path d="M24.5937 30.0002H22L20.5625 24.3752C20.5 24.1877 20.4062 23.7502 20.2812 23.1252C20.1562 22.5002 20.0625 22.0627 20.0625 21.8752C20.0312 22.1252 19.9687 22.5627 19.8437 23.1565C19.7187 23.7502 19.625 24.1565 19.5625 24.4065L18.125 30.0002H15.5312L12.8125 19.2815H15.0312L16.4062 25.1252C16.6562 26.219 16.8125 27.1252 16.9375 27.9377C16.9687 27.6565 17.0312 27.219 17.125 26.6565C17.2187 26.094 17.3437 25.6252 17.4062 25.3127L18.9687 19.3127H21.125L22.6875 25.3127C22.75 25.594 22.8437 26.0002 22.9375 26.5315C23.0312 27.0627 23.125 27.5627 23.1875 27.9377C23.25 27.5627 23.3125 27.094 23.4375 26.5002C23.5625 25.9065 23.6562 25.469 23.7187 25.1252L25.0937 19.2815H27.3125L24.5937 30.0002Z" fill="#2146BD"/>
</svg>
