<svg width="40" height="40" viewBox="0 0 40 40" fill="none" xmlns="http://www.w3.org/2000/svg">
<path d="M32.5 39.375H7.5C5.77688 39.375 4.375 37.9731 4.375 36.25V3.75C4.375 2.02688 5.77688 0.625 7.5 0.625H20.2147C21.0494 0.625 21.8344 0.950312 22.4241 1.54031L34.7097 13.8259C35.3 14.4163 35.625 15.2006 35.625 16.0353V36.25C35.625 37.9731 34.2231 39.375 32.5 39.375ZM7.5 1.875C6.46594 1.875 5.625 2.71594 5.625 3.75V36.25C5.625 37.2841 6.46594 38.125 7.5 38.125H32.5C33.5341 38.125 34.375 37.2841 34.375 36.25V16.0353C34.375 15.5419 34.1747 15.0587 33.8259 14.7097L21.5403 2.42406C21.1863 2.07 20.7153 1.875 20.2147 1.875H7.5Z" fill="#2146BD"/>
<path d="M29.7538 25.1C29.7319 24.9406 29.6038 24.7406 29.4663 24.6062C29.0725 24.2187 28.2069 24.0156 26.8882 23.9969C25.9944 23.9875 24.9194 24.0656 23.7882 24.225C23.2819 23.9344 22.76 23.6156 22.3507 23.2312C21.2475 22.2031 20.3288 20.775 19.7538 19.2031C19.7913 19.0563 19.8225 18.9281 19.8538 18.7969C19.8538 18.7969 20.4725 15.2719 20.31 14.0781C20.2882 13.9156 20.2725 13.8688 20.2288 13.7406L20.1757 13.6031C20.0069 13.2125 19.6757 12.8 19.1569 12.8219L18.8507 12.8125H18.8444C18.2632 12.8125 17.7944 13.1094 17.6694 13.55C17.2944 14.9375 17.6819 17.0156 18.385 19.7031L18.2038 20.1406C17.7007 21.3719 17.0694 22.6094 16.5132 23.7L16.4413 23.8406C15.8538 24.9875 15.3225 25.9625 14.8382 26.7875L14.3413 27.05C14.3038 27.0687 13.4507 27.5219 13.2507 27.6406C11.5538 28.6562 10.4288 29.8063 10.2413 30.7188C10.1819 31.0125 10.2257 31.3844 10.5288 31.5563L11.01 31.8C11.2194 31.9031 11.4413 31.9563 11.6663 31.9563C12.8757 31.9563 14.2788 30.45 16.2132 27.075C18.4444 26.35 20.9882 25.7437 23.2163 25.4125C24.9132 26.3656 27.0007 27.0312 28.3194 27.0312C28.5538 27.0312 28.7569 27.0094 28.9194 26.9656C29.1725 26.8969 29.385 26.7531 29.5163 26.5594C29.7725 26.175 29.8225 25.6437 29.7538 25.1ZM11.4038 31.0406C11.6225 30.4375 12.4975 29.2437 13.7882 28.1875C13.8694 28.1219 14.0694 27.9344 14.2507 27.7594C12.9007 29.9125 11.9975 30.7688 11.4038 31.0406ZM19.0475 13.4375C19.435 13.4375 19.6569 14.4156 19.6757 15.3344C19.6944 16.2531 19.4788 16.8969 19.2132 17.375C18.9913 16.6687 18.885 15.5563 18.885 14.8281C18.885 14.8281 18.8694 13.4375 19.0475 13.4375ZM16.7663 25.9812C17.0382 25.4969 17.3194 24.9844 17.6069 24.4438C18.31 23.1156 18.7538 22.0781 19.0819 21.225C19.7382 22.4187 20.5569 23.4344 21.5163 24.2469C21.6382 24.3469 21.7663 24.45 21.8975 24.5531C19.9444 24.9375 18.2538 25.4094 16.7663 25.9812ZM29.0882 25.8719C28.9694 25.9438 28.6288 25.9875 28.41 25.9875C27.7038 25.9875 26.8257 25.6656 25.5975 25.1375C26.0694 25.1031 26.5038 25.0844 26.8913 25.0844C27.6007 25.0844 27.81 25.0813 28.5069 25.2594C29.2007 25.4375 29.21 25.7969 29.0882 25.8719Z" fill="#2146BD"/>
</svg>
