<svg width="58" height="58" viewBox="0 0 58 58" fill="none" xmlns="http://www.w3.org/2000/svg">
<g clip-path="url(#clip0)">
<path d="M42.5 55.125H7.5C5.08763 55.125 3.125 53.1624 3.125 50.75V5.25C3.125 2.83763 5.08763 0.875 7.5 0.875H25.3006C26.4691 0.875 27.5681 1.33044 28.3937 2.15644L45.5936 19.3563C46.42 20.1828 46.875 21.2809 46.875 22.4494V50.75C46.875 53.1624 44.9124 55.125 42.5 55.125ZM7.5 2.625C6.05231 2.625 4.875 3.80231 4.875 5.25V50.75C4.875 52.1977 6.05231 53.375 7.5 53.375H42.5C43.9477 53.375 45.125 52.1977 45.125 50.75V22.4494C45.125 21.7586 44.8446 21.0822 44.3563 20.5936L27.1564 3.39369C26.6607 2.898 26.0014 2.625 25.3006 2.625H7.5Z" fill="#2146BD"/>
<path d="M38.6546 35.14C38.6239 34.9169 38.4446 34.6369 38.2521 34.4487C37.7008 33.9062 36.4889 33.6219 34.6427 33.5956C33.3914 33.5825 31.8864 33.6919 30.3027 33.915C29.5939 33.5081 28.8633 33.0619 28.2902 32.5237C26.7458 31.0844 25.4596 29.085 24.6546 26.8844C24.7071 26.6788 24.7508 26.4994 24.7946 26.3156C24.7946 26.3156 25.6608 21.3806 25.4333 19.7094C25.4027 19.4819 25.3808 19.4163 25.3196 19.2369L25.2452 19.0444C25.0089 18.4975 24.5452 17.92 23.8189 17.9506L23.3902 17.9375H23.3814C22.5677 17.9375 21.9114 18.3531 21.7364 18.97C21.2114 20.9125 21.7539 23.8219 22.7383 27.5844L22.4846 28.1969C21.7802 29.9206 20.8964 31.6531 20.1177 33.18L20.0171 33.3769C19.1946 34.9825 18.4508 36.3475 17.7727 37.5025L17.0771 37.87C17.0246 37.8962 15.8302 38.5306 15.5502 38.6969C13.1746 40.1187 11.5996 41.7288 11.3371 43.0063C11.2539 43.4175 11.3152 43.9381 11.7396 44.1788L12.4133 44.52C12.7064 44.6644 13.0171 44.7388 13.3321 44.7388C15.0252 44.7388 16.9896 42.63 19.6977 37.905C22.8214 36.89 26.3827 36.0413 29.5021 35.5775C31.8777 36.9119 34.8002 37.8438 36.6464 37.8438C36.9746 37.8438 37.2589 37.8131 37.4864 37.7519C37.8408 37.6556 38.1383 37.4544 38.3221 37.1831C38.6808 36.645 38.7508 35.9013 38.6546 35.14ZM12.9646 43.4569C13.2708 42.6125 14.4958 40.9412 16.3027 39.4625C16.4164 39.3706 16.6964 39.1081 16.9502 38.8631C15.0602 41.8775 13.7958 43.0763 12.9646 43.4569ZM23.6658 18.8125C24.2083 18.8125 24.5189 20.1819 24.5452 21.4681C24.5714 22.7544 24.2696 23.6556 23.8977 24.325C23.5871 23.3362 23.4383 21.7788 23.4383 20.7594C23.4383 20.7594 23.4164 18.8125 23.6658 18.8125ZM20.4721 36.3738C20.8527 35.6956 21.2464 34.9781 21.6489 34.2213C22.6333 32.3619 23.2546 30.9094 23.7139 29.715C24.6327 31.3863 25.7789 32.8081 27.1221 33.9456C27.2927 34.0856 27.4721 34.23 27.6558 34.3744C24.9214 34.9125 22.5546 35.5731 20.4721 36.3738ZM37.7227 36.2206C37.5564 36.3213 37.0796 36.3825 36.7733 36.3825C35.7846 36.3825 34.5552 35.9319 32.8358 35.1925C33.4964 35.1444 34.1046 35.1181 34.6471 35.1181C35.6402 35.1181 35.9333 35.1138 36.9089 35.3631C37.8802 35.6125 37.8933 36.1156 37.7227 36.2206Z" fill="#2146BD"/>
</g>
<circle cx="46" cy="46" r="11" fill="#2146BD" stroke="white" stroke-width="2"/>
<path d="M47.9429 45.2072C47.9429 46.6958 46.7315 47.9072 45.2429 47.9072C43.7542 47.9072 42.5429 46.6958 42.5429 45.2072C42.5429 43.7186 43.7542 42.5072 45.2429 42.5072C46.7315 42.5072 47.9429 43.7186 47.9429 45.2072ZM51.0286 50.2215C51.0286 50.0166 50.9442 49.8177 50.8056 49.6791L48.7384 47.6119C49.2266 46.9068 49.4857 46.063 49.4857 45.2072C49.4857 42.8628 47.5873 40.9644 45.2429 40.9644C42.8984 40.9644 41 42.8628 41 45.2072C41 47.5516 42.8984 49.4501 45.2429 49.4501C46.0987 49.4501 46.9424 49.1909 47.6475 48.7027L49.7147 50.7639C49.8533 50.9086 50.0522 50.9929 50.2571 50.9929C50.679 50.9929 51.0286 50.6434 51.0286 50.2215Z" fill="white"/>
<defs>
<clipPath id="clip0">
<rect width="53" height="56" fill="white"/>
</clipPath>
</defs>
</svg>
