<svg width="58" height="58" viewBox="0 0 58 58" fill="none" xmlns="http://www.w3.org/2000/svg">
<g clip-path="url(#clip0)">
<path d="M42.5 55.125H7.5C5.09375 55.125 3.125 53.1562 3.125 50.75V5.25C3.125 2.84375 5.09375 0.875 7.5 0.875H25.3062C26.4875 0.875 27.5813 1.3125 28.4125 2.14375L45.6063 19.3375C46.4375 20.1688 46.875 21.2625 46.875 22.4438V50.75C46.875 53.1562 44.9062 55.125 42.5 55.125ZM7.5 2.625C6.05625 2.625 4.875 3.80625 4.875 5.25V50.75C4.875 52.1937 6.05625 53.375 7.5 53.375H42.5C43.9437 53.375 45.125 52.1937 45.125 50.75V22.4438C45.125 21.7437 44.8625 21.0875 44.3375 20.6062L27.1438 3.4125C26.6625 2.8875 26.0062 2.625 25.3062 2.625H7.5Z" fill="#2146BD"/>
<path d="M31.4312 42.0004H27.8L25.7875 34.1254C25.7 33.8629 25.5688 33.2504 25.3938 32.3754C25.2188 31.5004 25.0875 30.8879 25.0875 30.6254C25.0437 30.9754 24.9562 31.5879 24.7812 32.4191C24.6062 33.2504 24.475 33.8191 24.3875 34.1691L22.375 42.0004H18.7438L14.9375 26.9941H18.0437L19.9687 35.1754C20.3187 36.7066 20.5375 37.9754 20.7125 39.1129C20.7562 38.7191 20.8437 38.1066 20.975 37.3191C21.1062 36.5316 21.2812 35.8754 21.3688 35.4379L23.5562 27.0379H26.575L28.7625 35.4379C28.85 35.8316 28.9812 36.4004 29.1125 37.1441C29.2437 37.8879 29.375 38.5879 29.4625 39.1129C29.55 38.5879 29.6375 37.9316 29.8125 37.1004C29.9875 36.2691 30.1187 35.6566 30.2062 35.1754L32.1313 26.9941H35.2375L31.4312 42.0004Z" fill="#2146BD"/>
</g>
<circle cx="46" cy="46" r="11" fill="#2146BD" stroke="white" stroke-width="2"/>
<path d="M46.25 51.7653C46.5156 51.7653 46.7734 51.6658 46.9531 51.4821L52.0391 46.5C52.2266 46.3163 52.3359 46.0638 52.3359 45.8036C52.3359 45.5434 52.2266 45.2985 52.0391 45.1148L51.4531 44.5408C51.2734 44.3571 51.0156 44.25 50.75 44.25C50.4844 44.25 50.2266 44.3571 50.0469 44.5408L47.75 46.7832V41.3954C47.75 40.8444 47.2812 40.5 46.75 40.5H45.75C45.2187 40.5 44.75 40.8444 44.75 41.3954V46.7832L42.4609 44.5408C42.2734 44.3571 42.0156 44.25 41.75 44.25C41.4844 44.25 41.2266 44.3571 41.0391 44.5408L40.4531 45.1148C40.2734 45.2985 40.1641 45.5434 40.1641 45.8036C40.1641 46.0638 40.2734 46.3163 40.4531 46.5L45.5391 51.4821C45.7266 51.6658 45.9844 51.7653 46.25 51.7653Z" fill="white"/>
<defs>
<clipPath id="clip0">
<rect width="53" height="56" fill="white"/>
</clipPath>
</defs>
</svg>
