<svg width="58" height="58" viewBox="0 0 58 58" fill="none" xmlns="http://www.w3.org/2000/svg">
<g clip-path="url(#clip0)">
<path d="M42.5 55.125H7.5C5.09375 55.125 3.125 53.1562 3.125 50.75V5.25C3.125 2.84375 5.09375 0.875 7.5 0.875H25.3062C26.4875 0.875 27.5813 1.3125 28.4125 2.14375L45.6063 19.3375C46.4375 20.1688 46.875 21.2625 46.875 22.4438V50.75C46.875 53.1562 44.9062 55.125 42.5 55.125ZM7.5 2.625C6.05625 2.625 4.875 3.80625 4.875 5.25V50.75C4.875 52.1937 6.05625 53.375 7.5 53.375H42.5C43.9437 53.375 45.125 52.1937 45.125 50.75V22.4438C45.125 21.7437 44.8625 21.0875 44.3375 20.6062L27.1438 3.4125C26.6625 2.8875 26.0062 2.625 25.3062 2.625H7.5Z" fill="#2146BD"/>
<path d="M16.7754 40.0312C16.4691 40.0312 16.1191 39.9437 15.8566 39.7687C15.3316 39.4625 15.0254 38.8937 15.0254 38.2812V21.875C15.0254 21.2625 15.3316 20.6937 15.8566 20.3875C16.3816 20.0812 17.0379 20.0375 17.5629 20.3437L33.9691 28.9187C34.5816 29.225 34.9316 29.8375 34.8879 30.4937C34.8879 31.15 34.4941 31.7625 33.8816 32.025L17.5629 39.8562C17.3004 39.9875 17.0379 40.0312 16.7754 40.0312ZM16.7754 21.875V38.2812L33.1816 30.45L16.7754 21.875Z" fill="#2146BD"/>
</g>
<circle cx="46" cy="46" r="11" fill="#2146BD" stroke="white" stroke-width="2"/>
<path d="M46.25 51.7653C46.5156 51.7653 46.7734 51.6658 46.9531 51.4821L52.0391 46.5C52.2266 46.3163 52.3359 46.0638 52.3359 45.8036C52.3359 45.5434 52.2266 45.2985 52.0391 45.1148L51.4531 44.5408C51.2734 44.3571 51.0156 44.25 50.75 44.25C50.4844 44.25 50.2266 44.3571 50.0469 44.5408L47.75 46.7832V41.3954C47.75 40.8444 47.2812 40.5 46.75 40.5H45.75C45.2187 40.5 44.75 40.8444 44.75 41.3954V46.7832L42.4609 44.5408C42.2734 44.3571 42.0156 44.25 41.75 44.25C41.4844 44.25 41.2266 44.3571 41.0391 44.5408L40.4531 45.1148C40.2734 45.2985 40.1641 45.5434 40.1641 45.8036C40.1641 46.0638 40.2734 46.3163 40.4531 46.5L45.5391 51.4821C45.7266 51.6658 45.9844 51.7653 46.25 51.7653Z" fill="white"/>
<defs>
<clipPath id="clip0">
<rect width="53" height="56" fill="white"/>
</clipPath>
</defs>
</svg>
