<svg width="40" height="40" viewBox="0 0 40 40" fill="none" xmlns="http://www.w3.org/2000/svg">
<path d="M32.5 39.375H7.5C5.78125 39.375 4.375 37.9688 4.375 36.25V3.75C4.375 2.03125 5.78125 0.625 7.5 0.625H20.2187C21.0625 0.625 21.8438 0.9375 22.4375 1.53125L34.7187 13.8125C35.3125 14.4063 35.625 15.1875 35.625 16.0312V36.25C35.625 37.9688 34.2188 39.375 32.5 39.375ZM7.5 1.875C6.46875 1.875 5.625 2.71875 5.625 3.75V36.25C5.625 37.2812 6.46875 38.125 7.5 38.125H32.5C33.5312 38.125 34.375 37.2812 34.375 36.25V16.0312C34.375 15.5312 34.1875 15.0625 33.8125 14.7187L21.5313 2.4375C21.1875 2.0625 20.7187 1.875 20.2187 1.875H7.5Z" fill="#2146BD"/>
<path d="M19.3765 30.0002C18.9702 30.0002 18.564 29.8752 18.2202 29.6252L11.6577 24.5315C11.439 24.344 11.1265 24.344 10.8765 24.5315L5.40771 28.9065L4.62646 27.9377L10.0952 23.5627C10.7827 23.0315 11.7202 23.0002 12.4077 23.5315L19.0015 28.594C19.2202 28.7502 19.5327 28.7815 19.7515 28.594L27.3765 22.8127C28.0015 22.344 28.8452 22.3127 29.5015 22.719L35.3452 26.344L34.689 27.4065L28.8452 23.7815C28.6265 23.6565 28.3452 23.6565 28.1265 23.8127L20.5015 29.594C20.189 29.8752 19.7827 30.0002 19.3765 30.0002Z" fill="#2146BD"/>
<path d="M16.5625 18.125C14.3125 18.125 12.5 16.3125 12.5 14.0625C12.5 11.8125 14.3125 10 16.5625 10C18.8125 10 20.625 11.8125 20.625 14.0625C20.625 16.3125 18.8125 18.125 16.5625 18.125ZM16.5625 11.25C15 11.25 13.75 12.5 13.75 14.0625C13.75 15.625 15 16.875 16.5625 16.875C18.125 16.875 19.375 15.625 19.375 14.0625C19.375 12.5 18.125 11.25 16.5625 11.25Z" fill="#2146BD"/>
</svg>
