<svg width="58" height="58" viewBox="0 0 58 58" fill="none" xmlns="http://www.w3.org/2000/svg">
<path d="M42.5 55.125H7.5C5.09375 55.125 3.125 53.1562 3.125 50.75V5.25C3.125 2.84375 5.09375 0.875 7.5 0.875H25.3062C26.4875 0.875 27.5813 1.3125 28.4125 2.14375L45.6062 19.3375C46.4375 20.1688 46.875 21.2625 46.875 22.4437V50.75C46.875 53.1562 44.9062 55.125 42.5 55.125ZM7.5 2.625C6.05625 2.625 4.875 3.80625 4.875 5.25V50.75C4.875 52.1937 6.05625 53.375 7.5 53.375H42.5C43.9437 53.375 45.125 52.1937 45.125 50.75V22.4437C45.125 21.7437 44.8625 21.0875 44.3375 20.6062L27.1438 3.4125C26.6625 2.8875 26.0062 2.625 25.3062 2.625H7.5Z" fill="#2146BD"/>
<path d="M21.9375 38.9385H20.1875V25.5947C20.1875 24.8072 20.7125 24.1072 21.4563 23.8885L30.6438 21.4822C31.1688 21.351 31.7375 21.4385 32.175 21.7885C32.6125 22.1385 32.875 22.6197 32.875 23.1885V36.4885H31.125V23.1885L21.9375 25.5947V38.9385Z" fill="#2146BD"/>
<path d="M17.7812 41.1252C19.5934 41.1252 21.0625 40.1459 21.0625 38.9377C21.0625 37.7296 19.5934 36.7502 17.7812 36.7502C15.9691 36.7502 14.5 37.7296 14.5 38.9377C14.5 40.1459 15.9691 41.1252 17.7812 41.1252Z" fill="#2146BD"/>
<path d="M17.7812 42.0002C15.4625 42.0002 13.625 40.644 13.625 38.9377C13.625 37.2315 15.4625 35.8752 17.7812 35.8752C20.1 35.8752 21.9375 37.2315 21.9375 38.9377C21.9375 40.644 20.1 42.0002 17.7812 42.0002ZM17.7812 37.6252C16.425 37.6252 15.375 38.3252 15.375 38.9377C15.375 39.5502 16.425 40.2502 17.7812 40.2502C19.1375 40.2502 20.1875 39.5502 20.1875 38.9377C20.1875 38.3252 19.1375 37.6252 17.7812 37.6252Z" fill="#2146BD"/>
<path d="M28.7188 38.849C30.5309 38.849 32 37.7913 32 36.4865C32 35.1818 30.5309 34.124 28.7188 34.124C26.9066 34.124 25.4375 35.1818 25.4375 36.4865C25.4375 37.7913 26.9066 38.849 28.7188 38.849Z" fill="#2146BD"/>
<path d="M28.7188 39.6811C26.4 39.6811 24.5625 38.2811 24.5625 36.4436C24.5625 34.6498 26.4 33.2061 28.7188 33.2061C31.0375 33.2061 32.875 34.6061 32.875 36.4436C32.875 38.2811 31.0375 39.6811 28.7188 39.6811ZM28.7188 34.9998C27.45 34.9998 26.3125 35.6998 26.3125 36.4873C26.3125 37.1873 27.3187 37.9748 28.7188 37.9748C30.1188 37.9748 31.125 37.1873 31.125 36.4873C31.125 35.6998 29.9875 34.9998 28.7188 34.9998Z" fill="#2146BD"/>
<circle cx="46" cy="46" r="11" fill="#2146BD" stroke="white" stroke-width="2"/>
<path d="M46.25 51.7653C46.5156 51.7653 46.7734 51.6658 46.9531 51.4821L52.0391 46.5C52.2266 46.3163 52.3359 46.0638 52.3359 45.8036C52.3359 45.5434 52.2266 45.2985 52.0391 45.1148L51.4531 44.5408C51.2734 44.3571 51.0156 44.25 50.75 44.25C50.4844 44.25 50.2266 44.3571 50.0469 44.5408L47.75 46.7832V41.3954C47.75 40.8444 47.2812 40.5 46.75 40.5H45.75C45.2187 40.5 44.75 40.8444 44.75 41.3954V46.7832L42.4609 44.5408C42.2734 44.3571 42.0156 44.25 41.75 44.25C41.4844 44.25 41.2266 44.3571 41.0391 44.5408L40.4531 45.1148C40.2734 45.2985 40.1641 45.5434 40.1641 45.8036C40.1641 46.0638 40.2734 46.3163 40.4531 46.5L45.5391 51.4821C45.7266 51.6658 45.9844 51.7653 46.25 51.7653Z" fill="white"/>
</svg>
