<svg width="40" height="40" viewBox="0 0 40 40" fill="none" xmlns="http://www.w3.org/2000/svg">
<path d="M32.5 39.375H7.5C5.78125 39.375 4.375 37.9688 4.375 36.25V3.75C4.375 2.03125 5.78125 0.625 7.5 0.625H20.2187C21.0625 0.625 21.8438 0.9375 22.4375 1.53125L34.7187 13.8125C35.3125 14.4063 35.625 15.1875 35.625 16.0312V36.25C35.625 37.9688 34.2188 39.375 32.5 39.375ZM7.5 1.875C6.46875 1.875 5.625 2.71875 5.625 3.75V36.25C5.625 37.2812 6.46875 38.125 7.5 38.125H32.5C33.5312 38.125 34.375 37.2812 34.375 36.25V16.0312C34.375 15.5312 34.1875 15.0625 33.8125 14.7187L21.5313 2.4375C21.1875 2.0625 20.7187 1.875 20.2187 1.875H7.5Z" fill="#2146BD"/>
<path d="M17.8125 27.813H16.5625V18.2817C16.5625 17.7192 16.9375 17.2192 17.4688 17.063L24.0313 15.3442C24.4063 15.2505 24.8125 15.313 25.125 15.563C25.4375 15.813 25.625 16.1567 25.625 16.563V26.063H24.375V16.563L17.8125 18.2817V27.813Z" fill="#2146BD"/>
<path d="M14.8438 29.3749C16.1382 29.3749 17.1875 28.6753 17.1875 27.8124C17.1875 26.9494 16.1382 26.2499 14.8438 26.2499C13.5493 26.2499 12.5 26.9494 12.5 27.8124C12.5 28.6753 13.5493 29.3749 14.8438 29.3749Z" fill="#2146BD"/>
<path d="M14.8438 30.0001C13.1875 30.0001 11.875 29.0314 11.875 27.8126C11.875 26.5939 13.1875 25.6251 14.8438 25.6251C16.5 25.6251 17.8125 26.5939 17.8125 27.8126C17.8125 29.0314 16.5 30.0001 14.8438 30.0001ZM14.8438 26.8751C13.875 26.8751 13.125 27.3751 13.125 27.8126C13.125 28.2501 13.875 28.7501 14.8438 28.7501C15.8125 28.7501 16.5625 28.2501 16.5625 27.8126C16.5625 27.3751 15.8125 26.8751 14.8438 26.8751Z" fill="#2146BD"/>
<path d="M22.6562 27.7488C23.9507 27.7488 25 26.9933 25 26.0613C25 25.1293 23.9507 24.3738 22.6562 24.3738C21.3618 24.3738 20.3125 25.1293 20.3125 26.0613C20.3125 26.9933 21.3618 27.7488 22.6562 27.7488Z" fill="#2146BD"/>
<path d="M22.6562 28.3434C21 28.3434 19.6875 27.3434 19.6875 26.0309C19.6875 24.7496 21 23.7184 22.6562 23.7184C24.3125 23.7184 25.625 24.7184 25.625 26.0309C25.625 27.3434 24.3125 28.3434 22.6562 28.3434ZM22.6562 24.9996C21.75 24.9996 20.9375 25.4996 20.9375 26.0621C20.9375 26.5621 21.6562 27.1246 22.6562 27.1246C23.6563 27.1246 24.375 26.5621 24.375 26.0621C24.375 25.4996 23.5625 24.9996 22.6562 24.9996Z" fill="#2146BD"/>
</svg>
