<?xml version="1.0" encoding="UTF-8"?>
<svg width="4px" height="14px" viewBox="0 0 4 14" version="1.1" xmlns="http://www.w3.org/2000/svg" xmlns:xlink="http://www.w3.org/1999/xlink">
    <!-- Generator: sketchtool 52.5 (67469) - http://www.bohemiancoding.com/sketch -->
    <title>7D3E8325-695A-4869-B302-E621B321C1F8</title>
    <desc>Created with sketchtool.</desc>
    <g id="Page-1" stroke="none" stroke-width="1" fill="none" fill-rule="evenodd">
        <g id="stepper-in-dewey" transform="translate(-630.000000, -1563.000000)" fill="#FFFFFF">
            <g id="Group-21" transform="translate(613.000000, 1551.000000)">
                <g id="Group-16-Copy-3" transform="translate(4.000000, 4.000000)">
                    <path d="M14.9451435,16.2750005 C14.708025,16.2750005 14.4800299,16.1791681 14.2611513,15.9875005 C14.0422727,15.7958329 13.9145955,15.5750017 13.8781157,15.3250005 C13.6592371,14.2416617 13.3674034,12.1666825 13.0026057,9.1000005 C12.9843658,8.88333275 13.0618842,8.6750015 13.2351631,8.4750005 C13.4084419,8.2749995 13.6136375,8.15000075 13.850756,8.1000005 C14.635071,7.9666665 15.4102543,7.9666665 16.1763294,8.1000005 C16.4316877,8.15000075 16.6368833,8.2749995 16.7919223,8.4750005 C16.9469613,8.6750015 17.0153599,8.88333275 16.99712,9.1000005 C16.6323223,12.1666825 16.3404886,14.2416617 16.12161,15.3250005 C16.0851302,15.5750017 15.957453,15.7958329 15.7385744,15.9875005 C15.5196958,16.1791681 15.2825809,16.2750005 15.0272225,16.2750005 L14.9451435,16.2750005 Z M13.6107143,21.4250005 C13.2218235,21.0749987 13.027381,20.650003 13.027381,20.1500005 C13.027381,19.649998 13.2218235,19.2250022 13.6107143,18.8750005 C13.9996052,18.5249987 14.4718227,18.3500005 15.027381,18.3500005 C15.5829393,18.3500005 16.0551568,18.5249987 16.4440477,18.8750005 C16.8329385,19.2250022 17.027381,19.649998 17.027381,20.1500005 C17.027381,20.650003 16.8329385,21.0749987 16.4440477,21.4250005 C16.0551568,21.7750023 15.5829393,21.9500005 15.027381,21.9500005 C14.4718227,21.9500005 13.9996052,21.7750023 13.6107143,21.4250005 Z" id="exclamation"></path>
                </g>
            </g>
        </g>
    </g>
</svg>