<?xml version="1.0" encoding="UTF-8"?>
<svg width="20px" height="20px" viewBox="0 0 20 20" version="1.1" xmlns="http://www.w3.org/2000/svg" xmlns:xlink="http://www.w3.org/1999/xlink">
    <!-- Generator: Sketch 41 (35326) - http://www.bohemiancoding.com/sketch -->
    <title>progress_here</title>
    <desc>Created with Sketch.</desc>
    <defs></defs>
    <g id="Page-1" stroke="none" stroke-width="1" fill="none" fill-rule="evenodd">
        <g id="Artboard" transform="translate(-10.000000, -96.000000)" fill="#2e00d9">
            <g id="progress_here" transform="translate(10.000000, 96.000000)">
                <path d="M10,20 C14.4572979,20 18.233478,17.0837879 19.5246735,13.0552304 C19.8333432,12.0921743 20,11.0655496 20,10 C20,8.92758154 19.8311876,7.89459132 19.5186864,6.92615298 C18.2218379,2.90723103 14.450429,0 10,0 C4.4771525,0 0,4.4771525 0,10 C0,15.5228475 4.4771525,20 10,20 Z M8.75906755,4.5 C8.80742703,4.5 8.85981568,4.52118215 8.91623507,4.56354708 L13.9214159,9.82524532 C14.0261947,9.93539415 14.0261947,10.0455413 13.9214159,10.1556901 L8.91623507,15.4173884 C8.8114562,15.5275372 8.70667891,15.5275372 8.60190004,15.4173884 L7.07858415,13.816002 C6.97380528,13.7058531 6.97380528,13.595706 7.07858415,13.4855571 L10.4032815,9.99046773 L7.07858415,6.49537832 C6.97380528,6.3852295 6.97380528,6.27508233 7.07858415,6.1649335 L8.60190004,4.56354708 C8.65831943,4.52118215 8.71070808,4.5 8.75906755,4.5 Z" id="Combined-Shape"></path>
            </g>
        </g>
    </g>
</svg>
