<svg width="15" height="16" viewBox="0 0 15 16" fill="none" xmlns="http://www.w3.org/2000/svg">
<path d="M7.33333 0.672363C3.28199 0.672363 0 4.04211 0 8.20178C0 12.3614 3.28199 15.7312 7.33333 15.7312C11.3847 15.7312 14.6667 12.3614 14.6667 8.20178C14.6667 4.04211 11.3847 0.672363 7.33333 0.672363ZM7.33333 1.74799C8.39732 1.74799 9.40402 2.02531 10.2879 2.5043L8.70015 4.13455C8.26637 3.98329 7.81622 3.89925 7.33333 3.89925C6.85863 3.89925 6.4003 3.98329 5.96652 4.13455L4.37872 2.5043C5.26265 2.02531 6.26935 1.74799 7.33333 1.74799ZM1.78423 11.2354C1.31771 10.3278 1.04762 9.29421 1.04762 8.20178C1.04762 7.10934 1.31771 6.07573 1.78423 5.16816L3.37202 6.79841C3.2247 7.24379 3.14286 7.70598 3.14286 8.20178C3.14286 8.68917 3.2247 9.15976 3.37202 9.60514L1.78423 11.2354ZM7.33333 14.6556C6.26935 14.6556 5.26265 14.3782 4.37872 13.8993L5.96652 12.269C6.4003 12.4203 6.85863 12.5043 7.33333 12.5043C7.81622 12.5043 8.26637 12.4203 8.70015 12.269L10.2879 13.8993C9.40402 14.3782 8.39732 14.6556 7.33333 14.6556ZM7.33333 11.4287C5.59821 11.4287 4.19048 9.98329 4.19048 8.20178C4.19048 6.42026 5.59821 4.97488 7.33333 4.97488C9.06845 4.97488 10.4762 6.42026 10.4762 8.20178C10.4762 9.98329 9.06845 11.4287 7.33333 11.4287ZM11.2946 9.60514C11.442 9.15976 11.5238 8.68917 11.5238 8.20178C11.5238 7.71438 11.442 7.24379 11.2946 6.79841L12.8824 5.16816C13.349 6.07573 13.619 7.10934 13.619 8.20178C13.619 9.29421 13.349 10.3278 12.8824 11.2354L11.2946 9.60514Z" fill="#DF3537"/>
</svg>
