<?xml version="1.0" encoding="UTF-8"?>
<svg width="1146px" height="1190px" viewBox="0 0 1146 1190" version="1.1" xmlns="http://www.w3.org/2000/svg" xmlns:xlink="http://www.w3.org/1999/xlink">
    <!-- Generator: Sketch 41.2 (35397) - http://www.bohemiancoding.com/sketch -->
    <title>deweyFox</title>
    <desc>Created with Sketch.</desc>
    <defs>
        <path d="M0.557,204.713 C0.557,308.542 58.795,376.253 104.635,376.253 C150.475,376.253 226.657,278.544 226.657,174.714 C226.657,70.884 150.475,0.254 104.635,0.254 C58.795,0.254 0.557,100.884 0.557,204.713 Z" id="path-1"></path>
        <path d="M0.557,18.253 C0.557,28.195 17.122,36.253 37.557,36.253 C57.991,36.253 74.557,28.195 74.557,18.253 C74.557,8.312 57.991,0.253 37.557,0.253 C17.122,0.253 0.557,8.312 0.557,18.253 Z" id="path-3"></path>
        <path d="M0.557,37.753 C0.557,58.464 7.713,75.254 21.066,75.254 C29.075,75.254 35.566,58.464 35.566,37.753 C35.566,17.042 29.976,0.253 21.066,0.253 C7.708,0.253 0.557,17.042 0.557,37.753 Z" id="path-5"></path>
        <path d="M0.557,37.753 C0.557,58.464 7.049,75.254 15.057,75.254 C28.41,75.254 35.567,58.464 35.567,37.753 C35.567,17.042 28.415,0.253 15.057,0.253 C6.148,0.253 0.557,17.042 0.557,37.753 Z" id="path-7"></path>
        <path d="M35.268,2.222 C25.671,3.267 16.067,4.642 6.634,6.658 C0.618,7.944 -0.193,9.872 1.063,15.92 C3.741,28.803 6.297,41.729 9.557,54.47 C14.808,74.986 22.475,94.568 33.191,112.954 C43.329,130.352 57.67,142.396 76.79,148.697 C93.798,154.3 111.237,156.808 129.176,156.05 C154.191,154.991 174.06,144.803 188.075,123.77 C197.171,110.118 203.904,95.287 210.266,80.251 C212.487,75.001 214.523,69.61 217.365,64.701 C222.815,55.287 234.714,55.549 239.93,65.078 C242.046,68.944 243.601,73.126 245.285,77.217 C252.391,94.474 259.789,111.583 270.9,126.765 C282.15,142.138 296.868,151.823 315.994,154.727 C334.067,157.471 351.764,155.862 369.451,151.794 C395.123,145.891 413.916,131.57 426.341,108.22 C437.509,87.236 444.958,65.02 450.504,42.079 C452.691,33.029 454.179,23.807 455.88,14.643 C456.426,11.699 456.579,8.415 452.898,7.459 C446.714,5.852 440.467,4.247 434.142,3.464 C409.383,0.394 384.569,0.689 359.715,2.561 C336.338,4.32 313.252,7.834 291.23,15.868 C276.595,21.208 262.552,28.213 248.389,34.782 C241.208,38.112 233.861,39.534 226.002,39.275 C217.309,38.989 209.678,35.643 202.233,31.665 C183.086,21.436 162.98,13.78 141.78,9.038 C114.649,2.969 87.115,1.079 59.383,0.953 C51.342,1.343 43.257,1.35 35.268,2.222 Z M311.083,145.83 C297.352,142.765 287.818,133.497 279.985,122.499 C268.402,106.238 259.892,88.417 254.771,69.1 C251.415,56.442 255.113,46.538 265.906,38.862 C277.074,30.921 289.844,26.284 302.807,22.41 C335.557,12.625 368.964,10.107 402.855,14.622 C406.989,15.173 411.082,16.295 415.086,17.506 C422.578,19.773 427.237,26.331 426.666,34.251 C424.898,58.776 420.409,82.737 410.961,105.583 C406.065,117.421 407.422,121.105 395.764,132.31 C393.522,133.847 391.427,135.674 389.016,136.875 C372.64,145.034 355.735,148.939 338.402,148.939 C329.406,148.938 320.292,147.886 311.083,145.83 Z M41.596,94.548 C34.99,74.994 31.605,54.836 30.085,34.326 C29.518,26.677 34.034,20.013 41.254,17.585 C51.316,14.202 61.777,13.294 72.276,12.847 C110.372,11.224 147.192,16.555 181.79,33.44 C185.535,35.268 189.118,37.57 192.433,40.102 C201.345,46.908 205.118,56.16 202.367,66.955 C196.224,91.055 185.899,113.176 168.916,131.761 C159.783,141.757 148.054,146.533 134.85,148.028 C115.667,150.199 96.829,148.361 78.676,141.818 C72.742,139.68 67.407,135.878 61.818,132.801 C60.948,132.323 60.186,131.651 59.374,131.068 C61.312,133.041 60.164,132.111 59.14,131.181 C58.158,130.288 57.29,129.396 59.374,131.068 C50.107,121.638 45.772,106.911 41.596,94.548 Z M59.594,130.865 L59.813,130.662 C59.74,130.73 59.667,130.798 59.594,130.865 Z M59.374,131.068 C59.448,131.001 59.521,130.933 59.594,130.865 L59.374,131.068 Z" id="path-9"></path>
    </defs>
    <g id="Page-1" stroke="none" stroke-width="1" fill="none" fill-rule="evenodd">
        <g id="deweyFox">
            <path d="M970.15,124.247931 C1111.4,97.1579308 1151.52,-26.6920692 1130.02,34.4879308 C1108.52,95.6779308 1101.79,109.467931 1091.02,272.887931 C1088.33,313.807931 1083.45,345.297931 1077.25,369.967931 C1077.25,369.967931 1066.21,378.107931 1054.6,374.387931 C1042.99,370.667931 1050.14,354.247931 1035.35,344.837931 C1020.56,335.427931 989.72,387.867931 940.45,407.317931 C891.18,426.777931 898.55,354.247931 872.5,354.247931 C846.45,354.247931 835.12,385.947931 789.71,443.087931 C744.29,500.237931 709.07,546.027931 657.42,580.367931 C606.21,614.417931 536.71,595.877931 535.56,595.577931 L535.55,595.567931 L518,569.677931 C529.3,564.967931 540.7,560.027931 552.01,554.867931 C643.14,513.307931 729.18,457.647931 719.69,450.587931 C689.52,428.147931 668.25,407.757931 652.34,383.967931 C670.16,286.537931 699.52,246.247931 728.73,201.317931 C757.94,156.387931 828.89,151.327931 970.15,124.247931" id="Fill-10-Copy-2" fill="#D34A3F"></path>
            <path d="M354.94,1081.19508 C350.23,1083.06508 343.87,1082.33508 336.8,1080.05508 C328.74,1085.50508 319.99,1108.79508 296.01,1150.34508 C272.03,1191.88508 235.43,1173.39508 224.29,1162.53508 C213.14,1151.67508 100,989.525081 100,911.285081 C100,909.225081 100.07,907.025081 100.22,904.705081 C105.48,819.185081 205.26,566.915081 205.26,566.915081 L364.42,624.485081 C364.42,624.485081 426.23,606.755081 497.5,578.475081 C497.5,578.475081 598.01,833.045081 598.01,911.285081 C598.01,912.915081 597.96,914.575081 597.86,916.275081 C595.2,963.395081 556.33,1036.83508 522.64,1091.37508 C499.17,1129.36508 478.21,1158.16508 473.73,1162.53508 C462.59,1173.39508 425.98,1191.88508 402.01,1150.34508 C378.03,1108.79508 367.48,1084.24508 359.42,1078.79508 C358,1079.76508 356.51,1080.57508 354.94,1081.19508 Z" id="Fill-18-Copy-2" fill="#F06153"></path>
            <g id="Group-3-Copy-2" transform="translate(240.000000, 645.715081)">
                <mask id="mask-2" fill="white">
                    <use xlink:href="#path-1"></use>
                </mask>
                <g id="Clip-2"></g>
                <polygon id="Fill-1" fill="#F9F3DC" mask="url(#mask-2)" points="-4.443 381.253 231.657 381.253 231.657 -4.747 -4.443 -4.747"></polygon>
            </g>
            <path d="M168.772763,182.155081 C180.842763,182.155081 80.2927627,114.185081 80.2927627,116.065081 C80.2927627,117.945081 135.002763,208.595081 135.002763,208.595081 C135.562763,209.535081 136.572763,209.575081 137.232763,208.705081 C137.232763,208.705081 156.702763,182.155081 168.772763,182.155081 M597.712763,109.415081 C600.972763,103.315081 527.532763,168.415081 527.532763,168.415081 C526.292763,169.505081 526.622763,170.565081 528.262763,170.865081 C528.262763,170.865081 550.252763,172.405081 564.492763,198.985081 C578.732763,225.555081 594.452763,115.515081 597.712763,109.415081 M606.812763,247.305081 C617.942763,310.075081 629.742763,350.555081 652.252763,384.215081 C627.642763,351.235081 597.822763,328.545081 577.852763,321.205081 C553.182763,312.135081 540.132763,312.955081 511.012763,316.585081 C452.372763,323.875081 397.542763,412.885081 380.962763,396.205081 C191.712763,205.875081 74.2727627,417.005081 44.0627627,482.575081 L43.2827627,482.215081 C59.3927627,447.265081 89.2527627,382.035081 93.9727627,368.255081 C100.502763,349.215081 113.422763,268.805081 113.422763,247.305081 C113.422763,225.795081 53.2627627,81.7550808 22.9927627,60.7850808 C-7.27723726,39.8150808 201.732763,160.385081 215.172763,166.035081 C246.792763,179.335081 375.212763,247.075081 509.302763,149.515081 C643.392763,51.9650808 599.222763,46.2150808 638.642763,24.7150808 C638.372763,25.3450808 629.492763,45.6850808 620.602763,76.8950808 C608.202763,120.475081 595.802763,185.265081 606.812763,247.305081" id="Fill-6-Copy-2" fill="#F06153"></path>
            <path d="M1055.04,374.384721 C1066.65,378.104721 1077.69,369.964721 1077.69,369.964721 C1069.54,402.404721 1059.12,423.024721 1048.39,437.704721 L1048.38,437.694721 C1045.76,431.004721 1045.92,421.274721 1035.79,414.834721 C1021,405.424721 990.16,457.864721 940.89,477.314721 C891.62,496.774721 898.99,424.244721 872.94,424.244721 C846.89,424.244721 835.56,455.944721 790.15,513.084721 C744.73,570.234721 725.22,587.374721 673.58,621.704721 C621.93,656.044721 565.86,639.624721 565.86,639.624721 L536,595.574721 C537.15,595.874721 606.65,614.414721 657.86,580.364721 C709.51,546.024721 744.73,500.234721 790.15,443.084721 C835.56,385.944721 846.89,354.244721 872.94,354.244721 C898.99,354.244721 891.62,426.774721 940.89,407.314721 C990.16,387.864721 1021,335.424721 1035.79,344.834721 C1050.58,354.244721 1043.43,370.664721 1055.04,374.384721" id="Fill-12-Copy-2" fill="#EDB87C"></path>
            <path d="M1047.96,437.694721 L1047.97,437.704721 C1034.26,456.454721 1020.05,465.514721 1009.46,477.144721 C984.24,504.794721 816.96,610.034721 803.48,624.664721 C790,639.294721 791.14,818.364721 777.61,870.914721 C764.08,923.474721 691.26,973.374721 663.06,991.134721 C634.85,1008.89472 522.36,1091.40472 522.36,1091.40472 L522,1091.17472 C555.69,1036.63472 594.56,963.194721 597.22,916.074721 L597.23,916.074721 C662.9,864.144721 682.97,812.994721 682.97,812.994721 L565.44,639.624721 C565.44,639.624721 621.51,656.044721 673.16,621.704721 C724.8,587.374721 744.31,570.234721 789.73,513.084721 C835.14,455.944721 846.47,424.244721 872.52,424.244721 C898.57,424.244721 891.2,496.774721 940.47,477.314721 C989.74,457.864721 1020.58,405.424721 1035.37,414.834721 C1045.5,421.274721 1045.34,431.004721 1047.96,437.694721" id="Fill-14-Copy-2" fill="#F9F3DC"></path>
            <path d="M181.51,557.715081 L205.33,566.365081 C205.26,566.565081 105.48,818.835081 100.22,904.355081 C34.54,852.425081 16,801.845081 16,801.845081 L181.51,557.715081 Z" id="Fill-20-Copy-2" fill="#D2473F"></path>
            <path d="M135.71,208.283373 C136.27,209.223373 137.28,209.263373 137.94,208.393373 C137.94,208.393373 157.41,181.843373 169.48,181.843373 C181.55,181.843373 81,113.873373 81,115.753373 C81,117.633373 135.71,208.283373 135.71,208.283373 Z" id="Stroke-23-Copy-2" stroke="#191926" stroke-width="4" fill="#F9F3DB"></path>
            <path d="M527.751375,168.118473 C526.511375,169.208473 526.841375,170.268473 528.481375,170.568473 C528.481375,170.568473 550.471375,172.108473 564.711375,198.688473 C578.951375,225.258473 594.671375,115.218473 597.931375,109.118473 C601.191375,103.018473 527.751375,168.118473 527.751375,168.118473 Z" id="Stroke-25-Copy-2" stroke="#191926" stroke-width="4" fill="#F9F3DB"></path>
            <path d="M596.2423,110.136053 C596.2423,110.136053 582.663938,134.272267 577.024867,145.56756 C571.385795,156.862853 562.998466,174.548594 559.842901,178.423379 C556.687336,182.298164 556.118177,186.090416 556.118177,186.090416 L563.064922,196.059815 L567.02224,201.139374 L571.711641,202.755743 L582.159091,180.559602 L596.238013,117.157828 L597.259498,111.776004 L596.2423,110.136053 Z" id="Path-18" fill="#E9E4CF"></path>
            <path d="M527.751375,168.118473 C526.511375,169.208473 526.841375,170.268473 528.481375,170.568473 C528.481375,170.568473 550.471375,172.108473 564.711375,198.688473 C578.951375,225.258473 594.671375,115.218473 597.931375,109.118473 C601.191375,103.018473 527.751375,168.118473 527.751375,168.118473 Z" id="Stroke-25-Copy-3" stroke="#191926" stroke-width="4"></path>
            <path d="M215.669958,1151.06276 C215.669958,1151.06276 243.176376,1162.65565 253.066591,1159.02593 C262.956805,1155.39621 274.222637,1138.75929 281.566181,1125.40631 C288.909725,1112.05334 293.616375,1094.30669 300.276356,1083.0794 C306.936338,1071.85211 309.766337,1066.27848 320.904688,1071.85211 C332.043038,1077.42573 334.056848,1081.14704 334.056848,1081.14704 L314.868573,1115.60504 L287.525213,1163.8732 L267.815937,1175.2428 L246.47015,1174.83663 C246.47015,1174.83663 234.661862,1170.32694 228.572125,1165.62643 C222.482389,1160.92592 215.669958,1151.06276 215.669958,1151.06276 Z" id="Path-23" fill="#BF4B3F"></path>
            <path d="M181.61,557.715081 L181.51,557.865081 L16,801.995081 C16,801.995081 34.54,852.575081 100.22,904.505081" id="Stroke-31-Copy-2" stroke="#191926" stroke-width="6"></path>
            <path d="M205.26,566.715081 C205.26,566.715081 105.48,818.985081 100.22,904.505081 C100.07,906.825081 100,909.025081 100,911.085081 C100,989.325081 213.14,1151.47508 224.29,1162.33508 C235.43,1173.19508 272.03,1191.68508 296.01,1150.14508 C319.99,1108.59508 328.74,1085.30508 336.8,1079.85508" id="Stroke-33-Copy-2" stroke="#191926" stroke-width="6"></path>
            <path d="M551.664823,1040.39804 C551.664823,1040.39804 729.96379,934.525289 747.775648,874.553945 C765.587507,814.582601 752.236483,645.534358 771.016851,614.880474 C789.797219,584.22659 918.675432,515.661968 930.294759,508.055873 C941.914086,500.449778 985.546256,473.20652 1002.10912,460.037912 C1018.67198,446.869304 1044.86161,426.427629 1044.86161,426.427629 L1048.37997,439.399249 L1004.38682,485.260577 L886.838426,568.081741 L807.602041,622.14293 L801.381045,631.432702 L799.079468,644.670008 L788.715434,767.746582 L780.277775,863.600074 L771.016851,888.568124 L751.089269,918.352114 L703.733603,964.074266 L652.746456,998.062442 L581.223227,1049.24483 L524.928784,1088.37109 L547.231797,1044.01563 L551.664823,1040.39804 Z" id="Path-16" fill="#EAE4CF"></path>
            <path d="M44.09,482.267341 C74.3,416.697341 191.74,205.567341 380.99,395.897341 C397.57,412.577341 452.4,323.567341 511.04,316.277341 C540.16,312.647341 553.21,311.827341 577.88,320.897341 C597.85,328.237341 627.67,350.927341 652.28,383.907341 C652.28,383.927341 652.3,383.947341 652.32,383.967341 C668.23,407.757341 689.5,428.147341 719.67,450.587341 C729.16,457.647341 643.12,513.307341 551.99,554.867341 C540.68,560.027341 529.28,564.967341 517.98,569.677341 C510.87,572.647341 503.8,575.517341 496.82,578.277341 C425.55,606.557341 363.74,624.287341 363.74,624.287341 L204.65,566.517341 L180.83,557.867341 L33,504.177341 C33,504.177341 37.15,495.247341 43.31,481.907341 L44.09,482.267341 Z" id="Fill-8-Copy-2" fill="#F9F3DC"></path>
            <path d="M363.984248,1079.84871 C363.984248,1079.84871 384.1347,1079.15812 395.190564,1095.06201 C406.246428,1110.9659 423.799826,1137.33507 440.320583,1137.33507 C456.841341,1137.33507 463.819289,1125.68455 478.272945,1100.20633 C492.7266,1074.72811 573.209134,951.283556 573.209134,917.942508 C573.209134,884.60146 496.562671,579.714452 496.562671,579.714452 L499.964028,582.521378 L555.789704,738.966407 L590.975212,862.867986 L597.481654,899.121208 L597.83969,917.796593 L590.834555,956.475078 L566.569128,1014.38731 L520.050093,1098.06318 L480.508487,1155.0782 L468.565447,1166.67812 L447.641684,1174.719 L424.527086,1172.77112 L408.950412,1158.97823 L380.746595,1110.41327 L363.984248,1079.84871 Z" id="Path-14" fill="#BF4B3F"></path>
            <path d="M518,569.715081 L566.7823,641.249381" id="Stroke-39-Copy-2" stroke="#CF6C31" stroke-width="6"></path>
            <g id="Group-54-Copy-2" transform="translate(348.000000, 379.715081)">
                <mask id="mask-4" fill="white">
                    <use xlink:href="#path-3"></use>
                </mask>
                <g id="Clip-53"></g>
                <polygon id="Fill-52" fill="#D34A3F" mask="url(#mask-4)" points="-4.443 41.253 79.557 41.253 79.557 -4.747 -4.443 -4.747"></polygon>
            </g>
            <path d="M615.491004,344.535163 C615.491004,344.535163 638.084514,423.228084 599.59702,467.266342 C561.109526,511.3046 479.334921,547.558954 465.537621,557.040823 C451.740321,566.522692 363.701595,598.430356 363.701595,623.915537 C363.701595,626.550627 479.625271,584.945228 479.625271,584.945228 L599.59702,533.314479 L677.772284,488.079999 L719.542698,455.460767 L720.175372,449.563338 L667.418324,405.854924 L646.394416,374.704379 C646.394416,374.704379 634.216755,362.064906 628.128226,356.121026 C622.039696,350.177146 615.491004,344.535163 615.491004,344.535163 Z" id="Path-17" fill="#E9E4CF"></path>
            <g id="Group-62-Copy-2" transform="translate(229.000000, 284.715081)">
                <mask id="mask-6" fill="white">
                    <use xlink:href="#path-5"></use>
                </mask>
                <g id="Clip-61"></g>
                <polygon id="Fill-60" fill="#D8D8D8" mask="url(#mask-6)" points="-4.443 80.253 40.566 80.253 40.566 -4.747 -4.443 -4.747"></polygon>
            </g>
            <path d="M652.292763,384.275081 C668.202763,408.065081 689.472763,428.455081 719.642763,450.895081 C729.132763,457.955081 643.092763,513.615081 551.962763,555.175081 C540.652763,560.335081 529.252763,565.275081 517.952763,569.985081 C510.842763,572.955081 503.772763,575.825081 496.792763,578.585081 C425.522763,606.865081 363.712763,624.595081 363.712763,624.595081 L204.622763,566.825081 L180.802763,558.175081 L32.9727627,504.485081 C32.9727627,504.485081 37.1227627,495.555081 43.2827627,482.215081 C59.3927627,447.265081 89.2527627,382.035081 93.9727627,368.255081 C100.502763,349.215081 113.422763,268.805081 113.422763,247.305081 C113.422763,225.795081 53.2627627,81.7550808 22.9927627,60.7850808 C-7.27723726,39.8150808 201.732763,160.385081 215.172763,166.035081 C246.792763,179.335081 375.212763,247.075081 509.302763,149.515081 C643.392763,51.9650808 599.222763,46.2150808 638.642763,24.7150808" id="Stroke-27-Copy-2" stroke="#191926" stroke-width="6"></path>
            <path d="M639.09936,24.7150808 L639.08936,24.7250808 C638.81936,25.3550808 629.93936,45.6950808 621.04936,76.9050808 C608.64936,120.485081 596.24936,185.275081 607.25936,247.315081 C618.38936,310.085081 630.18936,350.565081 652.69936,384.225081" id="Stroke-29-Copy-2" stroke="#191926" stroke-width="6"></path>
            <path d="M250.509,359.715081 C258.517,359.715081 265.009,342.926081 265.009,322.215081 C265.009,301.504081 259.418,284.715081 250.509,284.715081 C237.151,284.715081 230,301.504081 230,322.215081 C230,342.926081 237.156,359.715081 250.509,359.715081 Z" id="Stroke-63-Copy-2" stroke="#062544" fill="#032141"></path>
            <g id="Group-67-Copy-2" transform="translate(479.000000, 284.715081)">
                <mask id="mask-8" fill="white">
                    <use xlink:href="#path-7"></use>
                </mask>
                <g id="Clip-66"></g>
                <polygon id="Fill-65" fill="#D8D8D8" mask="url(#mask-8)" points="-4.443 80.253 40.566 80.253 40.566 -4.747 -4.443 -4.747"></polygon>
            </g>
            <path d="M494.5,359.715081 C486.492,359.715081 480,342.926081 480,322.215081 C480,301.504081 485.591,284.715081 494.5,284.715081 C507.858,284.715081 515.009,301.504081 515.009,322.215081 C515.009,342.926081 507.853,359.715081 494.5,359.715081 Z" id="Stroke-68-Copy-2" stroke="#032141" fill="#032141"></path>
            <path d="M277,1043.66508 C277,1043.66508 311.46,1071.70508 336.8,1079.85508 C343.87,1082.13508 350.23,1082.86508 354.94,1080.99508 C356.51,1080.37508 358,1079.56508 359.42,1078.59508 C377.6,1066.24508 385.33,1027.95508 412.22,1022.71508" id="Stroke-35-Copy-2" stroke="#191926" stroke-width="6"></path>
            <path d="M568.58,639.665081 L686.11,813.035081 C686.11,813.035081 666.04,864.185081 600.37,916.115081 L600.36,916.115081 C600.46,914.415081 600.51,912.755081 600.51,911.125081 C600.51,832.885081 500,578.315081 500,578.315081 C506.98,575.555081 514.05,572.685081 521.16,569.715081 L538.71,595.605081 L538.72,595.615081 L568.58,639.665081 Z" id="Fill-16-Copy-2" fill="#D2473F"></path>
            <g id="Group-Copy" transform="translate(107.000000, 254.715081)">
                <g id="Group-72-Copy" transform="translate(48.000000, 0.252822)">
                    <mask id="mask-10" fill="white">
                        <use xlink:href="#path-9"></use>
                    </mask>
                    <g id="Clip-71"></g>
                    <polygon id="Fill-70" fill="#221E1F" mask="url(#mask-10)" points="-4.443 161.182 461.172 161.182 461.172 -4.047 -4.443 -4.047"></polygon>
                </g>
                <polygon id="Path-12-Copy-3" stroke="#221E1F" fill="#453C3E" points="52.9429914 27.218074 2.7541402 16.2528223 -2.27373675e-13 37.1470193 60.8969473 61.6418734"></polygon>
                <polygon id="Path-12-Copy-2" stroke="#221E1F" fill="#453C3E" transform="translate(504.932703, 43.161110) scale(-1, 1) translate(-504.932703, -43.161110) " points="507.911451 26.6455981 500.358112 25.2528223 494 51.9816143 515.865407 61.0693975"></polygon>
            </g>
            <path d="M283,489.678192 C283,489.678192 348.186315,537.731554 384.171216,537.731554 C420.156118,537.731554 461.834769,508.352854 495.783663,481.715081" id="Path-13-Copy-2" stroke="#191926" stroke-width="6" stroke-linecap="round"></path>
            <path d="M596.859245,896.100561 C596.859245,896.100561 641.813982,830.032469 639.265692,818.412216 C636.717403,806.791964 518.643543,568.841455 518.643543,568.841455 L523.778274,568.175116 L683.386071,813.608619 L673.279585,834.091839 L648.264021,867.212809 L611.29974,906.229744 L600.302051,913.400625 L596.859245,896.100561 Z" id="Path-15" fill="#97352F" opacity="0.732450181"></path>
            <path d="M520.749492,568.644043 L565.86,639.765081 L683.39,813.135081 C683.39,813.135081 663.32,864.285081 597.65,916.215081" id="Stroke-37-Copy-2" stroke="#191926" stroke-width="6"></path>
            <path d="M498.497286,580.715081 C498.497286,580.715081 597.951216,832.430415 597.951216,910.670415 C597.951216,912.300415 597.901216,913.960415 597.801216,915.660415 C595.141216,962.780415 556.271216,1036.22041 522.581216,1090.76041 C499.111216,1128.75041 478.151216,1157.55041 473.671216,1161.92041 C462.531216,1172.78041 425.921216,1191.27041 401.951216,1149.73041 C377.971216,1108.18041 369.06,1084.69146 361,1079.24146" id="Stroke-41-Copy-2" stroke="#191926" stroke-width="6"></path>
            <path d="M81.4084494,116.76258 L122.223918,185.236022 L135.376176,208.517935 L138.672803,206.856197 L143.765403,200.249055 C143.765403,200.249055 139.241219,190.037934 133.119175,180.942352 C126.997131,171.84677 81.4084494,116.76258 81.4084494,116.76258 Z" id="Path-19" fill="#E9E4CF"></path>
            <path d="M135.71,208.283373 C136.27,209.223373 137.28,209.263373 137.94,208.393373 C137.94,208.393373 157.41,181.843373 169.48,181.843373 C181.55,181.843373 81,113.873373 81,115.753373 C81,117.633373 135.71,208.283373 135.71,208.283373 Z" id="Stroke-23-Copy-3" stroke="#191926" stroke-width="4"></path>
            <path d="M409.252934,681.028424 C409.252934,704.668897 432.474114,773.15166 432.474114,812.97215 C432.474114,852.79264 418.117622,891.71448 413.515032,902.621249 C405.928693,920.598612 389.242917,947.158569 380.234247,959.25792 C371.225576,971.35727 350.332341,991.552865 341.722352,991.552865 C306.940588,991.552865 290.670848,971.313678 277.342684,961.049588 C264.014521,950.785499 261.284442,945.795249 262.451776,950.785499 C263.619111,955.775749 297.47644,1002.10376 297.47644,1002.10376 L320.835631,1016.28991 L343.87255,1023.61807 L367.265992,1016.0844 L396.128697,995.55092 L426.741318,956.672907 L446.793729,916.961972 L461.541903,872.778166 L467.395713,823.791434 L466.016331,791.335486 L449.144594,734.654731 C449.144594,734.654731 409.252934,678.484011 409.252934,681.028424 Z" id="Path-20" fill="#E9E4CF"></path>
            <path d="M345.078,1022.71508 C390.918,1022.71508 467.1,925.005081 467.1,821.176081 C467.1,717.346081 390.918,646.715081 345.078,646.715081 C299.238,646.715081 241,747.345081 241,851.174081 C241,955.004081 299.238,1022.71508 345.078,1022.71508 Z" id="Stroke-4-Copy-2" stroke="#191926" stroke-width="6"></path>
            <path d="M569,640.256722 C569,640.256722 621.838898,656.044721 673.488898,621.704721 C725.128898,587.374721 744.638898,570.234721 790.058898,513.084721 C835.468898,455.944721 846.798898,424.244721 872.848898,424.244721 C898.898898,424.244721 891.528898,496.774721 940.798898,477.314721 C990.068898,457.864721 1020.9089,405.424721 1035.6989,414.834721 C1045.8289,421.274721 1045.6689,431.004721 1048.2889,437.694721" id="Stroke-47-Copy-2" stroke="#191926" stroke-width="6"></path>
            <path d="M523,1091.40793 C523,1091.40793 635.49,1008.89793 663.7,991.137931 C691.9,973.377931 764.72,923.477931 778.25,870.917931 C791.78,818.367931 790.64,639.297931 804.12,624.667931 C817.6,610.037931 984.88,504.797931 1010.1,477.147931 C1020.69,465.517931 1034.9,456.457931 1048.61,437.707931 C1059.34,423.027931 1069.76,402.407931 1077.91,369.967931 C1084.11,345.297931 1088.99,313.807931 1091.68,272.887931 C1102.45,109.467931 1109.18,95.6779308 1130.68,34.4879308 C1152.18,-26.6920692 1112.06,97.1579308 970.81,124.247931 C829.55,151.327931 758.6,156.387931 729.39,201.317931 C700.18,246.247931 670.82,286.537931 653,383.967931" id="Stroke-43-Copy-2" stroke="#191926" stroke-width="6"></path>
            <path d="M536.876575,594.668673 C538.036575,594.978673 606.735137,614.414721 657.945137,580.364721 C709.595137,546.024721 744.815137,500.234721 790.235137,443.084721 C835.645137,385.944721 846.975137,354.244721 873.025137,354.244721 C899.075137,354.244721 891.705137,426.774721 940.975137,407.314721 C990.245137,387.864721 1021.08514,335.424721 1035.87514,344.834721 C1050.66514,354.244721 1043.51514,370.664721 1055.12514,374.384721 C1066.73514,378.104721 1077.77514,369.964721 1077.77514,369.964721" id="Stroke-45-Copy-2" stroke="#191926" stroke-width="6"></path>
        </g>
    </g>
</svg>