<svg width="44" height="44" xmlns="http://www.w3.org/2000/svg" xmlns:xlink="http://www.w3.org/1999/xlink"><defs><linearGradient x1="50%" y1="0%" x2="85.816%" y2="83.236%" id="c"><stop stop-color="#FDFDFE" offset="0%"/><stop stop-color="#EAEAED" offset="100%"/></linearGradient><path d="M21 42C9.402 42 0 32.598 0 21S9.402 0 21 0s21 9.402 21 21-9.402 21-21 21zm-.5-9C27.404 33 33 27.404 33 20.5S27.404 8 20.5 8 8 13.596 8 20.5 13.596 33 20.5 33z" id="a"/><filter x="-4.8%" y="-2.4%" width="109.5%" height="109.5%" filterUnits="objectBoundingBox" id="b"><feOffset dy="1" in="SourceAlpha" result="shadowOffsetOuter1"/><feGaussianBlur stdDeviation=".5" in="shadowOffsetOuter1" result="shadowBlurOuter1"/><feColorMatrix values="0 0 0 0 0.65882355 0 0 0 0 0.68235296 0 0 0 0 0.729411781 0 0 0 1 0" in="shadowBlurOuter1"/></filter></defs><g transform="translate(1)" fill="none" fill-rule="evenodd"><mask id="d" fill="#fff"><use xlink:href="#a"/></mask><g fill-rule="nonzero"><use fill="#000" filter="url(#b)" xlink:href="#a"/><use fill="url(#c)" xlink:href="#a"/></g><g mask="url(#d)" fill="#E02B3A" fill-rule="nonzero"><path d="M8-4.746l14.013 26.37-28.248-8.153z"/><path d="M46.07 4.926L21.782 21.304l23.149 8.729z"/><path d="M29.157 47.497l-7.285-26.193L2.632 39.89z"/></g></g></svg>