<?xml version="1.0" encoding="UTF-8"?>
<svg width="46px" height="46px" viewBox="0 0 46 46" version="1.1" xmlns="http://www.w3.org/2000/svg" xmlns:xlink="http://www.w3.org/1999/xlink">
    <!-- Generator: Sketch 41 (35326) - http://www.bohemiancoding.com/sketch -->
    <title>camera</title>
    <desc>Created with Sketch.</desc>
    <defs></defs>
    <g id="Artboards" stroke="none" stroke-width="1" fill="none" fill-rule="evenodd">
        <g id="camera">
            <g id="Step2" transform="translate(1.000000, 3.000000)">
                <g id="Group">
                    <path d="M0,38.0000796 C0,39.1046051 0.898855112,40 2.00492334,40 L41.9950767,40 C43.1023652,40 44,39.1080589 44,38.0000796 L44,7.9999204 C44,6.89539486 43.1132936,6 42.0018986,6 L37.9981014,6 C36.8945804,6 35.5014849,5.2522274 34.885777,4.32866549 L33.114223,1.67133451 C32.4988546,0.748281946 31.0980496,0 29.9914698,0 L22.0085302,0 C20.8992496,0 19.5014849,0.747772604 18.885777,1.67133451 L17.114223,4.32866549 C16.4988546,5.25171805 15.1054862,6 14.0059397,6 L1.99406028,6 C0.892771196,6 0,6.89194115 0,7.9999204 L0,38.0000796 Z" id="Shape" stroke="#62748C" stroke-width="2" stroke-linecap="round" stroke-linejoin="round" fill="#FFFFFF"></path>
                    <path d="M43,15 L1,15" id="Shape" stroke="#62748C" stroke-width="2" stroke-linecap="round" stroke-linejoin="round"></path>
                    <path d="M43,31 L1,31" id="Shape-Copy" stroke="#62748C" stroke-width="2" stroke-linecap="round" stroke-linejoin="round"></path>
                    <rect id="Rectangle-10" fill="#FD8874" x="1" y="16" width="42" height="14"></rect>
                    <circle id="Oval" stroke="#62748C" stroke-width="2" fill="#FFFFFF" cx="26" cy="23" r="11"></circle>
                    <circle id="Oval" stroke="#62748C" stroke-width="2" fill="#FFFFFF" cx="26" cy="23" r="6"></circle>
                    <path d="M4.5,10 L12.5,10" id="Line" stroke="#62748C" stroke-width="2" stroke-linecap="round"></path>
                    <path d="M39.5,6 L10.4827637,6" id="Line" stroke="#62748C" stroke-width="2" stroke-linecap="square"></path>
                </g>
            </g>
        </g>
    </g>
</svg>