<?xml version="1.0" encoding="UTF-8"?>
<svg width="24px" height="24px" viewBox="0 0 24 24" version="1.1" xmlns="http://www.w3.org/2000/svg" xmlns:xlink="http://www.w3.org/1999/xlink">
    <!-- Generator: Sketch 41 (35326) - http://www.bohemiancoding.com/sketch -->
    <title>camera-small</title>
    <desc>Created with Sketch.</desc>
    <defs></defs>
    <g id="Artboards" stroke="none" stroke-width="1" fill="none" fill-rule="evenodd">
        <g id="camera-small">
            <g id="media-24px-outline-1_camera-18" transform="translate(1.000000, 2.000000)" stroke-linecap="round" stroke-width="2" stroke="#62748C" fill="#FFFFFF" stroke-linejoin="round">
                <g id="Group">
                    <path d="M0,19.0000398 C0,19.5523026 0.43945834,20 1.00246167,20 L20.9975383,20 C21.5511826,20 22,19.5452911 22,19.0000398 L22,3.9999602 C22,3.44769743 21.5566468,3 20.9906311,3 L18,3 L16,0 L10,0 L8,3 L0.997030139,3 C0.446385598,3 0,3.45470893 0,3.9999602 L0,19.0000398 Z" id="Shape"></path>
                </g>
            </g>
            <rect id="Rectangle-17" fill="#FD8874" x="2" y="11" width="20" height="5"></rect>
            <path d="M2,10 L22,10" id="Path-2" stroke="#62748C" stroke-width="2"></path>
            <path d="M2,17 L22,17" id="Path-2-Copy" stroke="#62748C" stroke-width="2"></path>
            <circle id="Oval" stroke="#62748C" stroke-width="2" stroke-linecap="round" stroke-linejoin="round" fill="#FFFFFF" cx="14" cy="13" r="5"></circle>
            <circle id="Oval" stroke="#62748C" stroke-width="2" stroke-linecap="round" stroke-linejoin="round" cx="14" cy="13" r="1"></circle>
        </g>
    </g>
</svg>