<?xml version="1.0" encoding="UTF-8"?>
<svg width="24px" height="24px" viewBox="0 0 24 24" version="1.1" xmlns="http://www.w3.org/2000/svg" xmlns:xlink="http://www.w3.org/1999/xlink">
    <!-- Generator: Sketch 41 (35326) - http://www.bohemiancoding.com/sketch -->
    <title>chat-heart-small</title>
    <desc>Created with Sketch.</desc>
    <defs></defs>
    <g id="Artboards" stroke="none" stroke-width="1" fill="none" fill-rule="evenodd">
        <g id="chat-heart-small" stroke-width="2">
            <g id="ui-24px-outline-2_chat-round" transform="translate(1.000000, 2.000000)" stroke="#62748C" fill="#FFFFFF">
                <g id="Group">
                    <path d="M19.4,14.8 C21,13.2 22,11.2 22,9 C22,4 17.1,0 11,0 C4.9,0 0,4 0,9 C0,14 4.9,18 11,18 C12.1,18 13.1,17.9 14.1,17.6 L20,20 L19.4,14.8 L19.4,14.8 Z" id="Shape"></path>
                </g>
            </g>
            <g id="files-24px-outline_heart" transform="translate(7.000000, 7.000000)" stroke="#CD192A" fill="#FD8874">
                <g id="Group">
                    <path d="M9.201,0.812 C7.985,-0.424 5.955,-0.222 5,1.24 C4.044,-0.224 2.014,-0.423 0.799,0.812 C-0.266,1.894 -0.266,3.649 0.799,4.731 L5,9 L9.202,4.731 C10.266,3.649 10.266,1.894 9.201,0.812 L9.201,0.812 Z" id="Shape"></path>
                </g>
            </g>
        </g>
    </g>
</svg>