<?xml version="1.0" encoding="UTF-8"?>
<svg width="24px" height="24px" viewBox="0 0 24 24" version="1.1" xmlns="http://www.w3.org/2000/svg" xmlns:xlink="http://www.w3.org/1999/xlink">
    <!-- Generator: Sketch 41 (35326) - http://www.bohemiancoding.com/sketch -->
    <title>chat-small</title>
    <desc>Created with Sketch.</desc>
    <defs></defs>
    <g id="Artboards" stroke="none" stroke-width="1" fill="none" fill-rule="evenodd">
        <g id="chat-small" stroke-width="2" stroke="#62748C">
            <g id="ui-24px-outline-3_chat-33" transform="translate(1.000000, 1.000000)">
                <g id="Group">
                    <path d="M6.799,15.601 C8.092,17.61 10.826,19 14,19 C14.59,19 15.163,18.949 15.716,18.858 L20,21 L20,16.96 C21.241,15.903 22,14.52 22,13 C22,11.448 21.208,10.039 19.919,8.973" id="Shape" fill="#FFFFFF"></path>
                    <path d="M10,0 C4.477,0 0,3.582 0,8 C0,9.797 0.75,11.45 2,12.785 L2,18 L6.833,15.584 C7.829,15.85 8.892,16 10,16 C15.523,16 20,12.418 20,8 C20,3.582 15.523,0 10,0 L10,0 Z" id="Shape" fill="#B6C8F9"></path>
                </g>
            </g>
        </g>
    </g>
</svg>