<?xml version="1.0" encoding="UTF-8"?>
<svg width="24px" height="24px" viewBox="0 0 24 24" version="1.1" xmlns="http://www.w3.org/2000/svg" xmlns:xlink="http://www.w3.org/1999/xlink">
    <!-- Generator: Sketch 41 (35326) - http://www.bohemiancoding.com/sketch -->
    <title>diploma-small</title>
    <desc>Created with Sketch.</desc>
    <defs></defs>
    <g id="Artboards" stroke="none" stroke-width="1" fill="none" fill-rule="evenodd" stroke-linecap="round" stroke-linejoin="round">
        <g id="diploma-small" stroke-width="2">
            <g id="Page-1" transform="translate(1.000000, 1.000000)">
                <path d="M9.6475,8.8189 L15.4705,0.4999 C17.2385,0.4999 21.1265,4.3889 21.1275,6.1569 L12.8065,11.9809" id="Stroke-15" stroke="#62748C" fill="#FFFFFF"></path>
                <path d="M8.8194,9.6475 L0.5004,15.4705 C0.5004,17.2385 4.3884,21.1275 6.1574,21.1275 L11.9804,12.8075" id="Stroke-17" stroke="#62748C" fill="#FFFFFF"></path>
                <polyline id="Stroke-19" stroke="#CD192A" fill="#FD8874" points="13.8086 10.9798 20.0056 17.1778 17.1776 17.1778 17.1776 20.0058 10.9806 13.8088"></polyline>
                <path d="M12.9356,8.6924 C14.1066,9.8644 14.1066,11.7634 12.9346,12.9354 C11.7626,14.1064 9.8646,14.1064 8.6926,12.9354 C7.5206,11.7634 7.5206,9.8644 8.6926,8.6924 C9.8646,7.5204 11.7626,7.5204 12.9356,8.6924 L12.9356,8.6924 Z" id="Stroke-13" stroke="#CD192A" fill="#FD8874"></path>
            </g>
        </g>
    </g>
</svg>