<?xml version="1.0" encoding="UTF-8"?>
<svg width="24px" height="24px" viewBox="0 0 24 24" version="1.1" xmlns="http://www.w3.org/2000/svg" xmlns:xlink="http://www.w3.org/1999/xlink">
    <!-- Generator: Sketch 41 (35326) - http://www.bohemiancoding.com/sketch -->
    <title>partner-small</title>
    <desc>Created with Sketch.</desc>
    <defs></defs>
    <g id="Artboards" stroke="none" stroke-width="1" fill="none" fill-rule="evenodd">
        <g id="partner-small" fill="#F8DFB2">
            <g id="Group" transform="translate(1.000000, 0.000000)">
                <circle id="Oval-2" cx="10" cy="10" r="8"></circle>
                <path d="M10.9,1.7 C8.2,0.4 4.8,0.9 2.5,3.2 C-0.1,5.8 -0.4,9.7 1.6,12.6 L1.8,12.8" id="Shape" stroke="#B8865D" stroke-width="2"></path>
                <path d="M14,8.5 L18.5,13 C19.8,14.3 19.8,16.4 18.5,17.7 L14.7,21.5 C13.4,22.8 11.3,22.8 10,21.5 L10,21.5" id="Shape" stroke="#B8865D" stroke-width="2" stroke-linecap="round" stroke-linejoin="round"></path>
                <path d="M16.3,7.4 C13.7,10 9,7.4 9,7.4 C6.3,10.1 3.8,8.4 3.8,8.4 L9,3.2 C11.9,0.3 16.6,0.3 19.5,3.2 C22.4,6.1 22.4,10.8 19.5,13.7 L19.2,14" id="Shape" stroke="#B8865D" stroke-width="2" stroke-linecap="round" stroke-linejoin="round"></path>
                <path d="M6.7,21.2 L1.8,16.3 C0.8,15.3 0.8,13.7 1.8,12.8 L1.8,12.8 C2.8,11.8 4.4,11.8 5.3,12.8 L10.2,17.7 C11.2,18.7 11.2,20.3 10.2,21.2 L10.2,21.2 C9.3,22.2 7.7,22.2 6.7,21.2 L6.7,21.2 Z" id="Shape" stroke="#B8865D" stroke-width="2" stroke-linecap="round" stroke-linejoin="round"></path>
            </g>
        </g>
    </g>
</svg>