<?xml version="1.0" encoding="UTF-8"?>
<svg width="24px" height="24px" viewBox="0 0 24 24" version="1.1" xmlns="http://www.w3.org/2000/svg" xmlns:xlink="http://www.w3.org/1999/xlink">
    <!-- Generator: Sketch 41 (35326) - http://www.bohemiancoding.com/sketch -->
    <title>leader-small</title>
    <desc>Created with Sketch.</desc>
    <defs></defs>
    <g id="Artboards" stroke="none" stroke-width="1" fill="none" fill-rule="evenodd">
        <g id="leader-small" stroke-width="2" stroke="#62748C">
            <g id="users-24px-outline_single-position" transform="translate(2.000000, 1.000000)">
                <g id="Group">
                    <path d="M12,16.06 C16.564,16.338 20,17.549 20,19 C20,20.657 15.523,22 10,22 C4.477,22 0,20.657 0,19 C0,17.549 3.435,16.338 8,16.06" id="Shape"></path>
                    <path d="M12,19 L8,19 L8,15 L5,14 L5,10 C5,8.895 5.895,8 7,8 L13,8 C14.105,8 15,8.895 15,10 L15,14 L12,15 L12,19 L12,19 Z" id="Shape" fill="#B6C8F9"></path>
                    <path d="M10,6 L10,6 C8.343,6 7,4.657 7,3 L7,3 C7,1.343 8.343,0 10,0 L10,0 C11.657,0 13,1.343 13,3 L13,3 C13,4.657 11.657,6 10,6 L10,6 Z" id="Shape" fill="#FFFFFF"></path>
                </g>
            </g>
        </g>
    </g>
</svg>