<?xml version="1.0" encoding="UTF-8"?>
<svg width="46px" height="46px" viewBox="0 0 46 46" version="1.1" xmlns="http://www.w3.org/2000/svg" xmlns:xlink="http://www.w3.org/1999/xlink">
    <!-- Generator: Sketch 41 (35326) - http://www.bohemiancoding.com/sketch -->
    <title>lightning-jar</title>
    <desc>Created with Sketch.</desc>
    <defs></defs>
    <g id="Artboards" stroke="none" stroke-width="1" fill="none" fill-rule="evenodd">
        <g id="lightning-jar" stroke-width="2">
            <g id="sport-48px-outline_energy-supplement" transform="translate(3.000000, 1.000000)">
                <g id="Group">
                    <path d="M32,8 L20,8 L8,8 C8,12.5 0,13 0,19.7415771 L0,40 C0,42.2091408 1.7908611,44 4,44 L20,44 L36,44 C38.2091408,44 40,42.2091408 40,40 L40,19.7415771 C40,13 32,12.5 32,8 L32,8 Z" id="Shape" stroke="#C9081A" fill="#FD8874"></path>
                    <polyline id="Shape" stroke="#FFFFFF" stroke-linejoin="round" points="22 20 16 26 24 26 18 32"></polyline>
                    <rect id="Rectangle-path" stroke="#62748C" stroke-linecap="round" stroke-linejoin="round" fill="#FFFFFF" x="4" y="0" width="32" height="8"></rect>
                    <path d="M20,0 L20,8" id="Shape" stroke="#62748C"></path>
                    <path d="M12,0 L12,8" id="Shape" stroke="#62748C"></path>
                    <path d="M28,0 L28,8" id="Shape" stroke="#62748C"></path>
                </g>
            </g>
        </g>
    </g>
</svg>