<?xml version="1.0" encoding="UTF-8"?>
<svg width="24px" height="24px" viewBox="0 0 24 24" version="1.1" xmlns="http://www.w3.org/2000/svg" xmlns:xlink="http://www.w3.org/1999/xlink">
    <!-- Generator: Sketch 41 (35326) - http://www.bohemiancoding.com/sketch -->
    <title>clever-search-small</title>
    <desc>Created with Sketch.</desc>
    <defs></defs>
    <g id="Artboards" stroke="none" stroke-width="1" fill="none" fill-rule="evenodd">
        <g id="clever-search-small">
            <g id="users-24px-outline-2_search-copy-2" transform="translate(1.000000, 1.000000)">
                <g id="Group">
                    <path d="M17.071,17.071 L22,22" id="Shape" stroke="#62748C" stroke-width="2" stroke-linecap="round" stroke-linejoin="round"></path>
                    <circle id="Oval" stroke="#62748C" stroke-width="2" stroke-linecap="round" stroke-linejoin="round" fill="#FFFFFF" cx="10" cy="10" r="10"></circle>
                    <path d="M10.3060683,14.8024822 C7.54834554,14.8024822 5.5,12.6497524 5.5,9.9283067 L5.5,9.9012411 C5.5,7.20686103 7.50803431,5 10.3865235,5 C12.1535268,5 13.2111528,5.59578143 14.0814404,6.46221882 L12.769402,7.99227079 C12.0464762,7.32882537 11.3101691,6.92267227 10.3729749,6.92267227 C8.79331009,6.92267227 7.6553961,8.24939395 7.6553961,9.8741755 L7.6553961,9.9012411 C7.6553961,11.5258535 8.76654745,12.8798099 10.3729749,12.8798099 C11.4439823,12.8798099 12.1000015,12.4465912 12.8363086,11.769613 L14.148347,13.1100367 C13.1843902,14.1525696 12.1133828,14.8024822 10.3060683,14.8024822 L10.3060683,14.8024822 Z" id="Path" fill="#4274F6"></path>
                </g>
            </g>
        </g>
    </g>
</svg>