<?xml version="1.0" encoding="UTF-8"?>
<svg width="46px" height="46px" viewBox="0 0 46 46" version="1.1" xmlns="http://www.w3.org/2000/svg" xmlns:xlink="http://www.w3.org/1999/xlink">
    <!-- Generator: Sketch 41 (35326) - http://www.bohemiancoding.com/sketch -->
    <title>user-search</title>
    <desc>Created with Sketch.</desc>
    <defs></defs>
    <g id="Artboards" stroke="none" stroke-width="1" fill="none" fill-rule="evenodd" stroke-linecap="round" stroke-linejoin="round">
        <g id="user-search" stroke-width="2" stroke="#62748C">
            <g id="users-48px-outline-2_search" transform="translate(1.000000, 1.000000)">
                <g id="Group">
                    <path d="M34.142,34.142 L44,44" id="Shape"></path>
                    <circle id="Oval" fill="#FFFFFF" cx="20" cy="20" r="20"></circle>
                    <path d="M29,29 L11,29 L11,26.758 C11,24.983 12.164,23.424 13.866,22.92 C15.46,22.448 17.604,22 20,22 C22.356,22 24.514,22.456 26.125,22.932 C27.83,23.436 29,24.994 29,26.773 L29,29 L29,29 Z" id="Shape" fill="#BCCEFF"></path>
                    <path d="M15,13 C15,10.239 17.239,8 20,8 C22.761,8 25,10.239 25,13 C25,15.761 22.761,19 20,19 C17.239,19 15,15.761 15,13 L15,13 Z" id="Shape"></path>
                </g>
            </g>
        </g>
    </g>
</svg>