<?xml version="1.0" encoding="UTF-8"?>
<svg width="24px" height="24px" viewBox="0 0 24 24" version="1.1" xmlns="http://www.w3.org/2000/svg" xmlns:xlink="http://www.w3.org/1999/xlink">
    <!-- Generator: Sketch 41 (35326) - http://www.bohemiancoding.com/sketch -->
    <title>business-man-small</title>
    <desc>Created with Sketch.</desc>
    <defs></defs>
    <g id="Artboards" stroke="none" stroke-width="1" fill="none" fill-rule="evenodd">
        <g id="business-man-small" stroke-width="2">
            <g id="business-24px-outline_business-contact-86" transform="translate(1.000000, 15.000000)" stroke-linecap="round" stroke="#62748C" stroke-linejoin="round">
                <g id="Group">
                    <path d="M7.7,0 L7,0 C3.1,0 0,3.1 0,7 L0,8 L22,8 L22,7 C22,3.1 18.9,0 15,0 L14.3,0" id="Shape" fill="#B6C8F9"></path>
                    <polyline id="Shape" fill="#FFFFFF" points="13.9 0.3 12 4 10 4 8.1 0.3"></polyline>
                </g>
            </g>
            <polygon id="Path-10" stroke="#62748C" fill="#FFFFFF" points="11 19 8 23 16 23 13 19"></polygon>
            <g id="Page-1" transform="translate(6.000000, 1.000000)" stroke-linecap="round" stroke-linejoin="round">
                <path d="M8.5,4.8 C7.6,6.7 5.7,8 3.5,8 C2.2,8 1,7.5 0,6.8 L0,9 C0,12.3 2.7,15 6,15 C9.3,15 12,12.3 12,9 L12,7.8 C10.4,7.4 9.2,6.3 8.5,4.8 L8.5,4.8 Z" id="Stroke-1" stroke="#B8865D" fill="#F8DFB2"></path>
                <path d="M6,0 C2.7,0 0,2.7 0,6 L0,6.8 C1,7.5 2.2,8 3.5,8 C5.7,8 7.6,6.7 8.5,4.8 C9.2,6.3 10.4,7.4 12,7.8 L12,6 C12,2.7 9.3,0 6,0 L6,0 Z" id="Stroke-3" stroke="#444444" fill="#8C8C8C"></path>
            </g>
        </g>
    </g>
</svg>