<?xml version="1.0" encoding="UTF-8"?>
<svg width="24px" height="24px" viewBox="0 0 24 24" version="1.1" xmlns="http://www.w3.org/2000/svg" xmlns:xlink="http://www.w3.org/1999/xlink">
    <!-- Generator: Sketch 41 (35326) - http://www.bohemiancoding.com/sketch -->
    <title>meeting-small</title>
    <desc>Created with Sketch.</desc>
    <defs></defs>
    <g id="Artboards" stroke="none" stroke-width="1" fill="none" fill-rule="evenodd" stroke-linecap="round" stroke-linejoin="round">
        <g id="meeting-small" stroke-width="2" stroke="#62748C">
            <g id="users-24px-outline_network" transform="translate(1.000000, 1.000000)">
                <g id="Group">
                    <path d="M8.455,17.086 L5.212,18.48 C4.477,18.796 4,19.519 4,20.319 L4,22 L18,22 L18,20.319 C18,19.519 17.523,18.796 16.788,18.481 L13.537,17.093" id="Shape" fill="#B6C8F9"></path>
                    <circle id="Oval" fill="#B6C8F9" cx="11" cy="2" r="2"></circle>
                    <circle id="Oval" fill="#B6C8F9" cx="20" cy="7" r="2"></circle>
                    <circle id="Oval" fill="#B6C8F9" cx="2" cy="7" r="2"></circle>
                    <path d="M11,18 L11,18 C8.791,18 7,16.209 7,14 L7,13 C7,10.791 8.791,9 11,9 L11,9 C13.209,9 15,10.791 15,13 L15,14 C15,16.209 13.209,18 11,18 L11,18 Z" id="Shape" fill="#FFFFFF"></path>
                </g>
            </g>
        </g>
    </g>
</svg>