<?xml version="1.0" encoding="UTF-8"?>
<svg width="24px" height="24px" viewBox="0 0 24 24" version="1.1" xmlns="http://www.w3.org/2000/svg" xmlns:xlink="http://www.w3.org/1999/xlink">
    <!-- Generator: Sketch 41 (35326) - http://www.bohemiancoding.com/sketch -->
    <title>microscope-small</title>
    <desc>Created with Sketch.</desc>
    <defs></defs>
    <g id="Artboards" stroke="none" stroke-width="1" fill="none" fill-rule="evenodd">
        <g id="microscope-small">
            <g id="education-24px-outline_microscope" transform="translate(4.000000, 1.000000)">
                <g id="Group">
                    <polygon id="Shape" stroke="#62748C" stroke-width="2" stroke-linecap="round" stroke-linejoin="round" fill="#FFFFFF" points="11 10.6 7.3 12.2 3.1 2 6.8 0.5"></polygon>
                    <polygon id="Path-8" fill="#B6C8F9" points="3 2 7 0 8 3 4 5"></polygon>
                    <path d="M4.3,4.9 L8,3.4" id="Shape" stroke="#62748C" stroke-width="2" stroke-linecap="round" stroke-linejoin="round"></path>
                    <path d="M4.3,4.9 C1.7,6.2 0,8.9 0,12 L0,13" id="Shape" stroke="#62748C" stroke-width="2" stroke-linecap="round" stroke-linejoin="round"></path>
                    <polygon id="Shape-Copy" stroke="#62748C" stroke-width="2" stroke-linecap="round" stroke-linejoin="round" points="11 10.6 7.3 12.2 3.1 2 6.8 0.5"></polygon>
                    <rect id="Rectangle-path" stroke="#62748C" stroke-width="2" stroke-linecap="round" stroke-linejoin="round" fill="#B6C8F9" x="0" y="19" width="17" height="3"></rect>
                    <path d="M8,16 L15,16" id="Shape" stroke="#62748C" stroke-width="2" stroke-linecap="round" stroke-linejoin="round"></path>
                    <path d="M4,19 L0,19 L0,13 L0,13 C2.2,13 4,14.8 4,17 L4,19 L4,19 Z" id="Shape" stroke="#62748C" stroke-width="2" stroke-linecap="round" stroke-linejoin="round"></path>
                </g>
            </g>
        </g>
    </g>
</svg>