<?xml version="1.0" encoding="UTF-8"?>
<svg width="46px" height="46px" viewBox="0 0 46 46" version="1.1" xmlns="http://www.w3.org/2000/svg" xmlns:xlink="http://www.w3.org/1999/xlink">
    <!-- Generator: Sketch 41 (35326) - http://www.bohemiancoding.com/sketch -->
    <title>ban</title>
    <desc>Created with Sketch.</desc>
    <defs></defs>
    <g id="Artboards" stroke="none" stroke-width="1" fill="none" fill-rule="evenodd">
        <g id="ban" stroke-width="2" stroke="#C9081A" fill="#FD8874">
            <g id="ui-48px-outline-2_ban-bold" transform="translate(1.000000, 1.000000)">
                <g id="Group">
                    <path d="M22,0 C9.8,0 0,9.8 0,22 C0,34.2 9.8,44 22,44 C34.2,44 44,34.2 44,22 C44,9.8 34.2,0 22,0 L22,0 Z M22,8 C24.4,8 26.7,8.6 28.7,9.7 L9.7,28.7 C8.6,26.7 8,24.5 8,22 C8,14.3 14.3,8 22,8 L22,8 Z M22,36 C19.6,36 17.3,35.4 15.3,34.3 L34.3,15.3 C35.4,17.3 36,19.5 36,22 C36,29.7 29.7,36 22,36 L22,36 Z" id="Shape"></path>
                </g>
            </g>
        </g>
    </g>
</svg>