<?xml version="1.0" encoding="UTF-8"?>
<svg width="24px" height="24px" viewBox="0 0 24 24" version="1.1" xmlns="http://www.w3.org/2000/svg" xmlns:xlink="http://www.w3.org/1999/xlink">
    <!-- Generator: Sketch 41 (35326) - http://www.bohemiancoding.com/sketch -->
    <title>ban-small</title>
    <desc>Created with Sketch.</desc>
    <defs></defs>
    <g id="Artboards" stroke="none" stroke-width="1" fill="none" fill-rule="evenodd">
        <g id="ban-small" stroke-width="2" stroke="#C9081A" fill="#FD8874">
            <g id="ui-24px-outline-2_ban-bold" transform="translate(1.000000, 1.000000)">
                <g id="Group">
                    <path d="M11,0 C4.9,0 0,4.9 0,11 C0,17.1 4.9,22 11,22 C17.1,22 22,17.1 22,11 C22,4.9 17.1,0 11,0 L11,0 Z M11,4 C12.2,4 13.3,4.3 14.3,4.8 L4.8,14.3 C4.3,13.3 4,12.2 4,11 C4,7.1 7.1,4 11,4 L11,4 Z M11,18 C9.8,18 8.7,17.7 7.7,17.2 L17.2,7.7 C17.7,8.7 18,9.8 18,11 C18,14.9 14.9,18 11,18 L11,18 Z" id="Shape"></path>
                </g>
            </g>
        </g>
    </g>
</svg>