<?xml version="1.0" encoding="UTF-8"?>
<svg width="24px" height="24px" viewBox="0 0 24 24" version="1.1" xmlns="http://www.w3.org/2000/svg" xmlns:xlink="http://www.w3.org/1999/xlink">
    <!-- Generator: Sketch 41 (35326) - http://www.bohemiancoding.com/sketch -->
    <title>origami-small</title>
    <desc>Created with Sketch.</desc>
    <defs></defs>
    <g id="Artboards" stroke="none" stroke-width="1" fill="none" fill-rule="evenodd">
        <g id="origami-small">
            <g id="Page-1-Copy-2" transform="translate(1.000000, 1.000000)">
                <polygon id="Fill-1" fill="#BCCEFF" points="3.99291767 7 0 11 6 11"></polygon>
                <polygon id="Stroke-2" stroke="#62748C" stroke-width="2.028" stroke-linejoin="round" points="3.99291767 7 0 11 6 11"></polygon>
                <polyline id="Fill-4" fill="#BCCEFF" points="6 10.7689846 9.72015675 17.8735314 20 22 9.72015675 7 9.72015675 17.8735314"></polyline>
                <polyline id="Stroke-5" stroke="#62748C" stroke-width="2.028" stroke-linejoin="round" points="6 10.7689846 9.72015675 17.8735314 20 22 9.72015675 7 9.72015675 17.8735314"></polyline>
                <path d="M10,7.006 L4,7" id="Stroke-7" stroke="#62748C" stroke-width="2.028" stroke-linejoin="round"></path>
                <polyline id="Fill-8" fill="#FFFFFF" points="16 5.301464 22 2 16.2174295 17"></polyline>
                <polyline id="Stroke-9" stroke="#62748C" stroke-width="2.028" stroke-linejoin="round" points="16 5.301464 22 2 16.2174295 17"></polyline>
                <polygon id="Fill-11" fill="#BCCEFF" points="17 16 17 0 10 6.49590109"></polygon>
                <polygon id="Stroke-12" stroke="#62748C" stroke-width="2.028" stroke-linejoin="round" points="17 16 17 0 10 6.49590109"></polygon>
            </g>
        </g>
    </g>
</svg>