<?xml version="1.0" encoding="UTF-8"?>
<svg width="46px" height="46px" viewBox="0 0 46 46" version="1.1" xmlns="http://www.w3.org/2000/svg" xmlns:xlink="http://www.w3.org/1999/xlink">
    <!-- Generator: Sketch 41 (35326) - http://www.bohemiancoding.com/sketch -->
    <title>origami</title>
    <desc>Created with Sketch.</desc>
    <defs></defs>
    <g id="Artboards" stroke="none" stroke-width="1" fill="none" fill-rule="evenodd">
        <g id="origami">
            <g id="Page-1-Copy" transform="translate(1.000000, 1.000000)">
                <polygon id="Fill-1" fill="#BCCEFF" points="7.98583534 13 0 21 12 21"></polygon>
                <polygon id="Stroke-2" stroke="#62748C" stroke-width="2.028" stroke-linejoin="round" points="7.98583534 13 0 21 12 21"></polygon>
                <polyline id="Fill-4" fill="#BCCEFF" points="12 20.5379692 20 35 41 43 20 13 20 35"></polyline>
                <polyline id="Stroke-5" stroke="#62748C" stroke-width="2.028" stroke-linejoin="round" points="12 20.5379692 20 35 41 43 20 13 20 35"></polyline>
                <path d="M20,13.006 L8,13" id="Stroke-7" stroke="#62748C" stroke-width="2.028" stroke-linejoin="round"></path>
                <polyline id="Fill-8" fill="#FFFFFF" points="32 10.3828304 44 4 32.4348589 33"></polyline>
                <polyline id="Stroke-9" stroke="#62748C" stroke-width="2.028" stroke-linejoin="round" points="32 10.3828304 44 4 33 31"></polyline>
                <polygon id="Fill-11" fill="#BCCEFF" points="34 32 34 0 20 12.9918022"></polygon>
                <polygon id="Stroke-12" stroke="#62748C" stroke-width="2.028" stroke-linejoin="round" points="34 32 34 0 20 12.9918022"></polygon>
            </g>
        </g>
    </g>
</svg>