<?xml version="1.0" encoding="UTF-8"?>
<svg width="24px" height="24px" viewBox="0 0 24 24" version="1.1" xmlns="http://www.w3.org/2000/svg" xmlns:xlink="http://www.w3.org/1999/xlink">
    <!-- Generator: Sketch 41 (35326) - http://www.bohemiancoding.com/sketch -->
    <title>pdf-small</title>
    <desc>Created with Sketch.</desc>
    <defs></defs>
    <g id="Artboards" stroke="none" stroke-width="1" fill="none" fill-rule="evenodd">
        <g id="pdf-small">
            <g id="files-24px-outline_single-folded" transform="translate(2.000000, 1.000000)" stroke-width="2" stroke="#62748C">
                <g id="Group">
                    <polygon id="Shape" stroke-linecap="round" stroke-linejoin="round" fill="#FFFFFF" points="14 0 0 0 0 22 20 22 20 6"></polygon>
                    <polyline id="Shape" points="14 0 14 6 20 6"></polyline>
                </g>
            </g>
            <path d="M9.145,13.816 C9.145,14.454 8.957,14.947 8.581,15.295 C8.205,15.643 7.67,15.816 6.977,15.816 L6.543,15.816 L6.543,17.711 L5,17.711 L5,12 L6.977,12 C7.698,12 8.24,12.157 8.602,12.473 C8.964,12.789 9.145,13.235 9.145,13.816 L9.145,13.816 Z M6.543,14.559 L6.824,14.559 C7.056,14.559 7.24,14.494 7.377,14.364 C7.514,14.234 7.582,14.054 7.582,13.825 C7.582,13.439 7.369,13.247 6.941,13.247 L6.543,13.247 L6.543,14.559 L6.543,14.559 Z" id="Shape" fill="#FD8874"></path>
            <path d="M14.848,14.734 C14.848,15.687 14.586,16.422 14.061,16.937 C13.536,17.452 12.799,17.711 11.848,17.711 L10,17.711 L10,12 L11.977,12 C12.894,12 13.602,12.234 14.1,12.703 C14.598,13.172 14.848,13.849 14.848,14.734 L14.848,14.734 Z M13.247,14.789 C13.247,14.266 13.143,13.878 12.936,13.625 C12.729,13.372 12.415,13.246 11.993,13.246 L11.544,13.246 L11.544,16.445 L11.888,16.445 C12.357,16.445 12.7,16.309 12.919,16.037 C13.138,15.765 13.247,15.349 13.247,14.789 L13.247,14.789 Z" id="Shape" fill="#FD8874"></path>
            <polygon id="Shape" fill="#FD8874" points="17.52 17.711 16 17.711 16 12 19.375 12 19.375 13.238 17.52 13.238 17.52 14.328 19.231 14.328 19.231 15.566 17.52 15.566"></polygon>
        </g>
    </g>
</svg>