<?xml version="1.0" encoding="UTF-8"?>
<svg width="46px" height="46px" viewBox="0 0 46 46" version="1.1" xmlns="http://www.w3.org/2000/svg" xmlns:xlink="http://www.w3.org/1999/xlink">
    <!-- Generator: Sketch 41 (35326) - http://www.bohemiancoding.com/sketch -->
    <title>pdf</title>
    <desc>Created with Sketch.</desc>
    <defs></defs>
    <g id="Artboards" stroke="none" stroke-width="1" fill="none" fill-rule="evenodd">
        <g id="pdf">
            <g id="files-48px-outline-3_pdf" transform="translate(1.000000, 1.000000)">
                <g id="Group">
                    <path d="M39,21 L39,12 L27,0 L6.991155,0 C5.89147046,0 5,0.90234375 5,1.99456145 L5,21" id="Shape" stroke="#62748C" stroke-width="2" stroke-linecap="round" stroke-linejoin="round" fill="#FFFFFF"></path>
                    <path d="M27,0 L27,9.9914698 C27,11.1007504 27.9019504,12 29.0085302,12 L39,12" id="Shape" stroke="#62748C" stroke-width="2" stroke-linecap="round" stroke-linejoin="round"></path>
                    <path d="M5,39 L5,41.9951185 C5,43.102384 5.89194115,44 6.9999204,44 L37.0000796,44 C38.1046051,44 39,43.1061002 39,41.9951185 L39,39" id="Shape" stroke="#62748C" stroke-width="2" stroke-linecap="round" stroke-linejoin="round" fill="#FFFFFF"></path>
                    <rect id="Rectangle-5" fill="#FD8874" x="1" y="22" width="42" height="16"></rect>
                    <path d="M5,16 L1.41942501,19.580575 C0.635498224,20.3645018 0,21.8926228 0,22.9950893 L0,37.0049107 C0,38.1067681 0.898855112,39 2.00492334,39 L41.9950767,39 C43.1023652,39 44,38.1073772 44,37.0049107 L44,22.9950893 C44,21.8932319 43.3667465,20.3667465 42.580575,19.580575 L39,16" id="Shape" stroke="#62748C" stroke-width="2" stroke-linecap="round" stroke-linejoin="round"></path>
                    <path d="M43,21 L1,21" id="Shape" stroke="#62748C" stroke-width="2" stroke-linecap="round" stroke-linejoin="round"></path>
                    <path d="M18.071,28.645 C18.071,29.523 17.812,30.201 17.295,30.678 C16.777,31.157 16.043,31.395 15.09,31.395 L14.494,31.395 L14.494,34 L12.372,34 L12.372,26.147 L15.09,26.147 C16.082,26.147 16.827,26.364 17.324,26.796 C17.822,27.23 18.071,27.847 18.071,28.645 L18.071,28.645 Z M14.494,29.666 L14.881,29.666 C15.2,29.666 15.453,29.576 15.641,29.396 C15.829,29.217 15.923,28.97 15.923,28.656 C15.923,28.126 15.63,27.861 15.042,27.861 L14.494,27.861 L14.494,29.666 L14.494,29.666 Z" id="Shape" fill="#FFFFFF"></path>
                    <path d="M25.988,29.907 C25.988,31.218 25.627,32.227 24.905,32.936 C24.184,33.646 23.17,34 21.863,34 L19.322,34 L19.322,26.147 L22.04,26.147 C23.3,26.147 24.273,26.469 24.959,27.114 C25.645,27.759 25.988,28.689 25.988,29.907 L25.988,29.907 Z M23.786,29.982 C23.786,29.262 23.644,28.729 23.359,28.381 C23.075,28.033 22.642,27.86 22.062,27.86 L21.444,27.86 L21.444,32.258 L21.917,32.258 C22.562,32.258 23.034,32.07 23.335,31.696 C23.636,31.322 23.786,30.752 23.786,29.982 L23.786,29.982 Z" id="Shape" fill="#FFFFFF"></path>
                    <polygon id="Shape" fill="#FFFFFF" points="29.484 34 27.395 34 27.395 26.147 32.036 26.147 32.036 27.849 29.485 27.849 29.485 29.348 31.838 29.348 31.838 31.05 29.485 31.05 29.485 34"></polygon>
                </g>
            </g>
        </g>
    </g>
</svg>