<?xml version="1.0" encoding="UTF-8"?>
<svg width="24px" height="24px" viewBox="0 0 24 24" version="1.1" xmlns="http://www.w3.org/2000/svg" xmlns:xlink="http://www.w3.org/1999/xlink">
    <!-- Generator: Sketch 41 (35326) - http://www.bohemiancoding.com/sketch -->
    <title>pen-paper-small</title>
    <desc>Created with Sketch.</desc>
    <defs></defs>
    <g id="Artboards" stroke="none" stroke-width="1" fill="none" fill-rule="evenodd">
        <g id="pen-paper-small">
            <g id="Page-1" transform="translate(4.000000, 1.000000)">
                <path d="M19,20.5 C19,21.328 18.329,22 17.5,22 C16.671,22 16,21.328 16,20.5 L16,6 C16,5.172 16.671,4.5 17.5,4.5 C18.329,4.5 19,5.172 19,6 L19,20.5 L19,20.5 Z" id="Stroke-10" stroke="#62748C" stroke-width="2" stroke-linecap="round" stroke-linejoin="round" fill="#FFFFFF"></path>
                <rect id="Rectangle" fill="#B6C8F9" x="17" y="5" width="1" height="7"></rect>
                <path d="M19,20.5 C19,21.328 18.329,22 17.5,22 C16.671,22 16,21.328 16,20.5 L16,6 C16,5.172 16.671,4.5 17.5,4.5 C18.329,4.5 19,5.172 19,6 L19,20.5 L19,20.5 Z" id="Stroke-10" stroke="#62748C" stroke-width="2" stroke-linecap="round" stroke-linejoin="round"></path>
                <path d="M2,6 L10,6 C11.657,6 13,4.657 13,3 C13,1.343 11.657,0 10,0 L0,0" id="Stroke-4" stroke="#62748C" stroke-width="2" stroke-linecap="round" stroke-linejoin="round" fill="#B6C8F9"></path>
                <path d="M16,20 L19,20" id="Stroke-11" stroke="#62748C" stroke-width="2" stroke-linecap="round" stroke-linejoin="round"></path>
                <path d="M16,13 L19,13" id="Stroke-12" stroke="#62748C" stroke-width="2" stroke-linecap="round" stroke-linejoin="round"></path>
            </g>
            <path d="M4,17 L1,17 L1,4 C1,2.343 2.343,1 4,1 C5.657,1 7,2.343 7,4 C7,5.657 5.657,7 4,7" id="Stroke-3" stroke="#62748C" stroke-width="2" stroke-linecap="round" stroke-linejoin="round" fill="#FFFFFF"></path>
            <polygon id="Stroke-1" stroke="#62748C" stroke-width="2" stroke-linecap="round" stroke-linejoin="round" points="4 23 14 23 14 7 4 7"></polygon>
        </g>
    </g>
</svg>