<?xml version="1.0" encoding="UTF-8"?>
<svg width="24px" height="24px" viewBox="0 0 24 24" version="1.1" xmlns="http://www.w3.org/2000/svg" xmlns:xlink="http://www.w3.org/1999/xlink">
    <!-- Generator: Sketch 41 (35326) - http://www.bohemiancoding.com/sketch -->
    <title>sync-small</title>
    <desc>Created with Sketch.</desc>
    <defs></defs>
    <g id="Artboards" stroke="none" stroke-width="1" fill="none" fill-rule="evenodd">
        <g id="sync-small">
            <g id="tech-24px-outline_sync" transform="translate(1.000000, 1.000000)" stroke-linecap="round" stroke-width="2" stroke="#62748C" stroke-linejoin="round">
                <g id="Group">
                    <path d="M13,0 L13,0 C15.8,0 18,2.2 18,5 L18,5" id="Shape"></path>
                    <path d="M4,17 L4,17 C4,19.8 6.2,22 9,22 L9,22" id="Shape"></path>
                    <path d="M7,13 L2,13 C0.9,13 0,12.1 0,11 L0,2 C0,0.9 0.9,0 2,0 L7,0 C8.1,0 9,0.9 9,2 L9,11 C9,12.1 8.1,13 7,13 L7,13 Z" id="Shape" fill="#FFFFFF"></path>
                    <path d="M0,9 L9,9" id="Shape"></path>
                    <path d="M0,3 L9,3" id="Shape"></path>
                    <path d="M20,22 L15,22 C13.9,22 13,21.1 13,20 L13,11 C13,9.9 13.9,9 15,9 L20,9 C21.1,9 22,9.9 22,11 L22,20 C22,21.1 21.1,22 20,22 L20,22 Z" id="Shape" fill="#FFFFFF"></path>
                    <path d="M13,18 L22,18" id="Shape"></path>
                    <path d="M13,12 L22,12" id="Shape"></path>
                </g>
            </g>
            <rect id="Rectangle-7" fill="#B6C8F9" x="15" y="14" width="7" height="4"></rect>
            <rect id="Rectangle-7-Copy" fill="#B6C8F9" x="2" y="5" width="7" height="4"></rect>
        </g>
    </g>
</svg>