<?xml version="1.0" encoding="UTF-8"?>
<svg width="46px" height="46px" viewBox="0 0 46 46" version="1.1" xmlns="http://www.w3.org/2000/svg" xmlns:xlink="http://www.w3.org/1999/xlink">
    <!-- Generator: Sketch 41 (35326) - http://www.bohemiancoding.com/sketch -->
    <title>shutter</title>
    <desc>Created with Sketch.</desc>
    <defs></defs>
    <g id="Artboards" stroke="none" stroke-width="1" fill="none" fill-rule="evenodd">
        <g id="shutter" stroke="#62748C" stroke-width="2">
            <g id="Page-1" transform="translate(1.000000, 1.000000)">
                <path d="M44,22 C44,34.1497391 34.1497391,44 22,44 C9.84930435,44 0,34.1497391 0,22 C0,9.85026087 9.84930435,0 22,0 C34.1497391,0 44,9.85026087 44,22 L44,22 Z" id="Stroke-1" fill="#FFFFFF"></path>
                <path d="M39,22 C39,31.389 31.389,39 22,39 C12.611,39 5,31.389 5,22 C5,12.611 12.611,5 22,5 C31.389,5 39,12.611 39,22 L39,22 Z" id="Stroke-3" fill="#D8D8D8"></path>
                <path d="M6.5,29 L26,29" id="Stroke-5"></path>
                <path d="M20.3159,38.917 L30.0619,22.036" id="Stroke-7"></path>
                <path d="M35.8076,31.917 L26.0616,15.036" id="Stroke-9"></path>
                <path d="M37,15 L18,15" id="Stroke-11"></path>
                <path d="M23.6851,5.083 L13.9381,21.965" id="Stroke-13"></path>
                <path d="M8.1909,12.082 L17.9389,28.964" id="Stroke-15"></path>
            </g>
            <polygon id="Page-1" fill="#FFFFFF" points="15 22.9284 19 16.0004 27 16.0004 31 22.9284 27 29.8564 19 29.8564"></polygon>
        </g>
    </g>
</svg>