<?xml version="1.0" encoding="UTF-8"?>
<svg width="24px" height="24px" viewBox="0 0 24 24" version="1.1" xmlns="http://www.w3.org/2000/svg" xmlns:xlink="http://www.w3.org/1999/xlink">
    <!-- Generator: Sketch 41 (35326) - http://www.bohemiancoding.com/sketch -->
    <title>shutter-small</title>
    <desc>Created with Sketch.</desc>
    <defs></defs>
    <g id="Artboards" stroke="none" stroke-width="1" fill="none" fill-rule="evenodd">
        <g id="shutter-small" stroke="#62748C" stroke-width="2">
            <g id="Page-1" transform="translate(1.000000, 0.000000)">
                <path d="M22,12 C22,18.075 17.075,23 11,23 C4.925,23 0,18.075 0,12 C0,5.925 4.925,1 11,1 C17.075,1 22,5.925 22,12 L22,12 Z" id="Stroke-1" fill="#D8D8D8"></path>
                <polygon id="Stroke-3" fill="#FFFFFF" points="6.9895 12 8.9945 8.527 13.0055 8.527 15.0105 12 13.0055 15.473 8.9945 15.473"></polygon>
                <path d="M8.9948,8 L21.4668,8" id="Stroke-5"></path>
                <path d="M6.5333,11.7366 L12.7693,0.9356" id="Stroke-7"></path>
                <path d="M8.5385,15.7366 L2.3025,4.9356" id="Stroke-9"></path>
                <path d="M13.0052,16 L0.5332,16" id="Stroke-11"></path>
                <path d="M15.4667,12.2634 L9.2307,23.0644" id="Stroke-13"></path>
                <path d="M13.4615,8.2634 L19.6975,19.0644" id="Stroke-15"></path>
            </g>
        </g>
    </g>
</svg>