<?xml version="1.0" encoding="UTF-8"?>
<svg width="24px" height="24px" viewBox="0 0 24 24" version="1.1" xmlns="http://www.w3.org/2000/svg" xmlns:xlink="http://www.w3.org/1999/xlink">
    <!-- Generator: Sketch 41 (35326) - http://www.bohemiancoding.com/sketch -->
    <title>gift-small</title>
    <desc>Created with Sketch.</desc>
    <defs></defs>
    <g id="Artboards" stroke="none" stroke-width="1" fill="none" fill-rule="evenodd" stroke-linecap="round" stroke-linejoin="round">
        <g id="gift-small" stroke-width="2" stroke="#62748C">
            <g id="shopping-24px-outline_gift" transform="translate(1.000000, 1.000000)">
                <g id="Group">
                    <path d="M20,8 L20,20.9931545 C20,21.5492199 19.5550537,22 19.0066023,22 L2.99339768,22 C2.44475929,22 2,21.5500512 2,20.9931545 L2,8" id="Shape" fill="#B6C8F9"></path>
                    <rect id="Rectangle-path" fill="#B6C8F9" x="0" y="4" width="22" height="4" rx="1"></rect>
                    <path d="M5,2 C5,0.895 5.895,0 7,0 C9.958,0 11,4 11,4 L7,4 C5.895,4 5,3.105 5,2 L5,2 Z" id="Shape"></path>
                    <path d="M17,2 C17,0.895 16.105,0 15,0 C12.042,0 11,4 11,4 L15,4 C16.105,4 17,3.105 17,2 L17,2 Z" id="Shape"></path>
                    <polygon id="Shape" fill="#FFFFFF" points="13 4 13 22 9 22 9 4"></polygon>
                </g>
            </g>
        </g>
    </g>
</svg>