<?xml version="1.0" encoding="UTF-8"?>
<svg width="46px" height="46px" viewBox="0 0 46 46" version="1.1" xmlns="http://www.w3.org/2000/svg" xmlns:xlink="http://www.w3.org/1999/xlink">
    <!-- Generator: Sketch 41 (35326) - http://www.bohemiancoding.com/sketch -->
    <title>gift</title>
    <desc>Created with Sketch.</desc>
    <defs></defs>
    <g id="Artboards" stroke="none" stroke-width="1" fill="none" fill-rule="evenodd" stroke-linecap="round" stroke-linejoin="round">
        <g id="gift" stroke-width="2" stroke="#62748C">
            <g id="shopping-48px-outline_gift" transform="translate(1.000000, 1.000000)">
                <g id="Group">
                    <path d="M40,16 L40,42.0087557 C40,43.1084896 39.1101074,44 38.0002927,44 L5.99970728,44 C4.89529944,44 4,43.1001025 4,42.0087557 L4,16" id="Shape" fill="#B6C8F9"></path>
                    <rect id="Rectangle-path" fill="#B6C8F9" x="0" y="8" width="44" height="8" rx="2"></rect>
                    <polyline id="Shape" fill="#FFFFFF" points="26 8 26 44 18 44 18 8"></polyline>
                    <path d="M10,4 C10,1.791 11.791,0 14,0 C19.917,0 22,8 22,8 L14,8 C11.791,8 10,6.209 10,4 L10,4 Z" id="Shape"></path>
                    <path d="M34,4 C34,1.791 32.209,0 30,0 C24.083,0 22,8 22,8 L30,8 C32.209,8 34,6.209 34,4 L34,4 Z" id="Shape"></path>
                </g>
            </g>
        </g>
    </g>
</svg>