<?xml version="1.0" encoding="UTF-8"?>
<svg width="46px" height="46px" viewBox="0 0 46 46" version="1.1" xmlns="http://www.w3.org/2000/svg" xmlns:xlink="http://www.w3.org/1999/xlink">
    <!-- Generator: Sketch 41 (35326) - http://www.bohemiancoding.com/sketch -->
    <title>printer</title>
    <desc>Created with Sketch.</desc>
    <defs></defs>
    <g id="Artboards" stroke="none" stroke-width="1" fill="none" fill-rule="evenodd" stroke-linecap="round">
        <g id="printer" stroke-width="2">
            <g id="tech-48px-outline_print" transform="translate(1.000000, 1.000000)">
                <g id="Group">
                    <path d="M8,34 L1.99810135,34 C0.894580447,34 0,33.1017876 0,32.0092049 L0,14 C0,11.791 1.791,10 4,10 L40,10 C42.209,10 44,11.791 44,14 L44,32.0092049 C44,33.1086907 43.1132936,34 42.0018986,34 L36,34" id="Shape" stroke="#62748C" stroke-linejoin="round" fill="#D8D8D8"></path>
                    <polyline id="Shape" stroke="#62748C" stroke-linejoin="round" points="8 5 8 0 36 0 36 5"></polyline>
                    <rect id="Rectangle-path" stroke="#62748C" fill="#FFFFFF" x="8" y="21" width="28" height="23" rx="2"></rect>
                    <path d="M16,29 L28,29" id="Shape" stroke="#416EF5"></path>
                    <path d="M16,36 L28,36" id="Shape" stroke="#416EF5"></path>
                </g>
            </g>
        </g>
    </g>
</svg>