<?xml version="1.0" encoding="UTF-8"?>
<svg width="24px" height="24px" viewBox="0 0 24 24" version="1.1" xmlns="http://www.w3.org/2000/svg" xmlns:xlink="http://www.w3.org/1999/xlink">
    <!-- Generator: Sketch 41 (35326) - http://www.bohemiancoding.com/sketch -->
    <title>qr-code-small</title>
    <desc>Created with Sketch.</desc>
    <defs></defs>
    <g id="Artboards" stroke="none" stroke-width="1" fill="none" fill-rule="evenodd" stroke-linecap="round" stroke-linejoin="round">
        <g id="qr-code-small" stroke-width="2" stroke="#62748C">
            <g id="shopping-24px-outline_bardcode-qr" transform="translate(1.000000, 1.000000)">
                <g id="Group">
                    <polygon id="Shape" points="9 9 0 9 0 0 9 0 9 0"></polygon>
                    <polygon id="Shape" points="22 9 13 9 13 0 13 0 22 0"></polygon>
                    <polygon id="Shape" points="9 22 0 22 0 13 9 13 9 13"></polygon>
                    <polyline id="Shape" points="22 18 22 13 18 13 18 16 14 16 14 13"></polyline>
                    <polyline id="Shape" points="22 22 14 22 14 20"></polyline>
                    <polygon id="Shape" points="5 5 4 5 4 4 5 4"></polygon>
                    <polygon id="Shape" points="18 5 17 5 17 5 17 4 18 4"></polygon>
                    <polygon id="Shape" points="5 18 4 18 4 17 5 17"></polygon>
                </g>
            </g>
        </g>
    </g>
</svg>