<?xml version="1.0" encoding="UTF-8"?>
<svg width="24px" height="24px" viewBox="0 0 24 24" version="1.1" xmlns="http://www.w3.org/2000/svg" xmlns:xlink="http://www.w3.org/1999/xlink">
    <!-- Generator: Sketch 41 (35326) - http://www.bohemiancoding.com/sketch -->
    <title>shield-small</title>
    <desc>Created with Sketch.</desc>
    <defs></defs>
    <g id="Artboards" stroke="none" stroke-width="1" fill="none" fill-rule="evenodd">
        <g id="shield-small">
            <g id="ui-24px-outline-3_security" transform="translate(2.000000, 2.000000)">
                <g id="Group">
                    <path d="M10,0 C7,2 3,3 0,3 C0,10 3,17 10,20 C17,17 20,10 20,3 C17,3 13,2 10,0 L10,0 Z" id="Shape" stroke="#62748C" stroke-width="2" stroke-linecap="round" stroke-linejoin="round" fill="#FFFFFF"></path>
                    <path d="M10,10 L10,0 C10,0 11,2 20,3 C20,10 18,10 18,10 L10,10 Z" id="Path-5" fill="#BCCEFF"></path>
                    <path d="M1,10 C3,10 10,10 10,10 L10,20 C10,20 4,18 1,10 Z" id="Path-6" fill="#BCCEFF"></path>
                    <path d="M10,0 L10,20" id="Shape" stroke="#62748C" stroke-width="2" stroke-linejoin="round"></path>
                    <path d="M18.904,10 L1.096,10" id="Shape" stroke="#62748C" stroke-width="2" stroke-linejoin="round"></path>
                    <path d="M10,0 C7,2 3,3 0,3 C0,10 3,17 10,20 C17,17 20,10 20,3 C17,3 13,2 10,0 L10,0 Z" id="Shape" stroke="#62748C" stroke-width="2" stroke-linecap="round" stroke-linejoin="round"></path>
                </g>
            </g>
        </g>
    </g>
</svg>