<?xml version="1.0" encoding="UTF-8"?>
<svg width="24px" height="24px" viewBox="0 0 24 24" version="1.1" xmlns="http://www.w3.org/2000/svg" xmlns:xlink="http://www.w3.org/1999/xlink">
    <!-- Generator: Sketch 41 (35326) - http://www.bohemiancoding.com/sketch -->
    <title>clever-square-small</title>
    <desc>Created with Sketch.</desc>
    <defs>
        <rect id="path-1" x="0" y="0" width="24" height="24" rx="4"></rect>
        <mask id="mask-2" maskContentUnits="userSpaceOnUse" maskUnits="objectBoundingBox" x="0" y="0" width="24" height="24" fill="white">
            <use xlink:href="#path-1"></use>
        </mask>
    </defs>
    <g id="Artboards" stroke="none" stroke-width="1" fill="none" fill-rule="evenodd">
        <g id="clever-square-small">
            <use id="Rectangle-15" stroke="#62748C" mask="url(#mask-2)" stroke-width="4" fill="#FFFFFF" xlink:href="#path-1"></use>
            <g id="clever-brand" transform="translate(6.000000, 6.000000)" fill="#4274F6">
                <path d="M6.1129313,12 C2.60533034,12 8.8817842e-16,9.36467177 8.8817842e-16,6.03313315 L8.8817842e-16,6 C8.8817842e-16,2.70159453 2.55405771,0 6.21526381,0 C8.4627495,0 9.80796457,0.729343549 10.9149002,1.79001864 L9.24609315,3.66307724 C8.32658982,2.85090081 7.39006653,2.35369642 6.1980311,2.35369642 C4.18882485,2.35369642 2.74149002,3.9778422 2.74149002,5.96686685 L2.74149002,6 C2.74149002,7.98881756 4.15478493,9.64630358 6.1980311,9.64630358 C7.56026613,9.64630358 8.39466966,9.11596604 9.33119294,8.28722303 L11,9.92814247 C9.77392465,11.2043901 8.41168962,12 6.1129313,12 L6.1129313,12 Z" id="Path"></path>
            </g>
        </g>
    </g>
</svg>