<?xml version="1.0" encoding="UTF-8"?>
<svg width="24px" height="24px" viewBox="0 0 24 24" version="1.1" xmlns="http://www.w3.org/2000/svg" xmlns:xlink="http://www.w3.org/1999/xlink">
    <!-- Generator: Sketch 41 (35326) - http://www.bohemiancoding.com/sketch -->
    <title>tablet-small</title>
    <desc>Created with Sketch.</desc>
    <defs></defs>
    <g id="Artboards" stroke="none" stroke-width="1" fill="none" fill-rule="evenodd">
        <g id="tablet-small" stroke-width="2">
            <g id="design-24px-outline_tablet" transform="translate(1.000000, 2.000000)">
                <g id="Group">
                    <path d="M20.008845,4 C21.1085295,4 22,4.89451376 22,5.99406028 L22,18.0059397 C22,19.1072288 21.1103261,20 20.008845,20 L1.991155,20 C0.891470458,20 0,19.1054862 0,18.0059397 L0,5.99406028 C0,4.8927712 0.889673948,4 1.991155,4 L20.008845,4 Z" id="Shape" stroke="#62748C" fill="#FFFFFF"></path>
                    <circle id="Oval" stroke="#62748C" cx="4" cy="12" r="1"></circle>
                    <polyline id="Shape" stroke="#62748C" stroke-linejoin="round" fill="#BCCEFF" points="17 7 19 7 19 17 8 17 8 7 13 7"></polyline>
                    <path d="M11.586,10.414 C11.586,10.414 12.034,7.966 12.586,7.414 L19.586,0.414 C20.138,-0.138 21.034,-0.138 21.586,0.414 L21.586,0.414 C22.138,0.966 22.138,1.862 21.586,2.414 L14.586,9.414 C14.034,9.966 11.586,10.414 11.586,10.414 L11.586,10.414 Z" id="Shape" stroke="#917341" fill="#F2AF4D"></path>
                </g>
            </g>
        </g>
    </g>
</svg>