<?xml version="1.0" encoding="UTF-8"?>
<svg width="46px" height="46px" viewBox="0 0 46 46" version="1.1" xmlns="http://www.w3.org/2000/svg" xmlns:xlink="http://www.w3.org/1999/xlink">
    <!-- Generator: Sketch 41 (35326) - http://www.bohemiancoding.com/sketch -->
    <title>tablet</title>
    <desc>Created with Sketch.</desc>
    <defs></defs>
    <g id="Artboards" stroke="none" stroke-width="1" fill="none" fill-rule="evenodd">
        <g id="tablet" stroke-width="2">
            <g id="design-48px-outline_tablet" transform="translate(1.000000, 3.000000)">
                <g id="Group">
                    <path d="M41.9950767,8 C43.1023652,8 44,8.88926172 44,10.0017433 L44,37.9982567 C44,39.103789 43.1011449,40 41.9950767,40 L2.00492334,40 C0.897634756,40 0,39.1107383 0,37.9982567 L0,10.0017433 C0,8.89621101 0.898855112,8 2.00492334,8 L41.9950767,8 Z" id="Shape" stroke="#62748C" fill="#FFFFFF"></path>
                    <circle id="Oval" stroke="#62748C" fill="#FFFFFF" cx="8" cy="24" r="2"></circle>
                    <polyline id="Shape" stroke="#62748C" stroke-linejoin="round" fill="#BCCEFF" points="35 14 38 14 38 34 16 34 16 14 27 14"></polyline>
                    <path d="M8,14 L8,16" id="Shape" stroke="#62748C" stroke-linecap="round" stroke-linejoin="round"></path>
                    <path d="M8,32 L8,34" id="Shape" stroke="#62748C" stroke-linecap="round" stroke-linejoin="round"></path>
                    <path d="M24.172,20.828 L25.172,15.828 L39.172,1.828 C40.277,0.723 42.067,0.723 43.172,1.828 C44.276,2.932 44.277,4.723 43.172,5.828 L29.172,19.828 L24.172,20.828 L24.172,20.828 Z" id="Shape" stroke="#9B7332" fill="#F2AF4D"></path>
                </g>
            </g>
        </g>
    </g>
</svg>