<?xml version="1.0" encoding="UTF-8"?>
<svg width="24px" height="24px" viewBox="0 0 24 24" version="1.1" xmlns="http://www.w3.org/2000/svg" xmlns:xlink="http://www.w3.org/1999/xlink">
    <!-- Generator: Sketch 41 (35326) - http://www.bohemiancoding.com/sketch -->
    <title>users-small</title>
    <desc>Created with Sketch.</desc>
    <defs></defs>
    <g id="Artboards" stroke="none" stroke-width="1" fill="none" fill-rule="evenodd" stroke-linecap="round" stroke-linejoin="round">
        <g id="users-small" stroke-width="2" stroke="#62748C">
            <g id="users-24px-outline-2_meeting" transform="translate(1.000000, 1.000000)">
                <g id="Group">
                    <path d="M4.992,17.737 L7.2,19.4 C7.704,19.778 8,20.37 8,21 L8,22 L0,22 L0,21 C0,20.37 0.296,19.778 0.8,19.4 L3.008,17.737" id="Shape" fill="#B6C8F9"></path>
                    <path d="M4,18 L4,18 C2.895,18 2,17.105 2,16 L2,15 C2,13.895 2.895,13 4,13 L4,13 C5.105,13 6,13.895 6,15 L6,16 C6,17.105 5.105,18 4,18 L4,18 Z" id="Shape" fill="#FFFFFF"></path>
                    <path d="M11.992,4.737 L14.2,6.4 C14.704,6.778 15,7.37 15,8 L15,9 L7,9 L7,8 C7,7.37 7.296,6.778 7.8,6.4 L10.008,4.737" id="Shape" fill="#B6C8F9"></path>
                    <path d="M11,5 L11,5 C9.895,5 9,4.105 9,3 L9,2 C9,0.895 9.895,0 11,0 L11,0 C12.105,0 13,0.895 13,2 L13,3 C13,4.105 12.105,5 11,5 L11,5 Z" id="Shape" fill="#FFFFFF"></path>
                    <path d="M18.992,17.737 L21.2,19.4 C21.704,19.778 22,20.37 22,21 L22,22 L14,22 L14,21 C14,20.37 14.296,19.778 14.8,19.4 L17.008,17.737" id="Shape" fill="#B6C8F9"></path>
                    <path d="M18,18 L18,18 C16.895,18 16,17.105 16,16 L16,15 C16,13.895 16.895,13 18,13 L18,13 C19.105,13 20,13.895 20,15 L20,16 C20,17.105 19.105,18 18,18 L18,18 Z" id="Shape" fill="#FFFFFF"></path>
                </g>
            </g>
        </g>
    </g>
</svg>