<?xml version="1.0" encoding="UTF-8"?>
<svg width="24px" height="24px" viewBox="0 0 24 24" version="1.1" xmlns="http://www.w3.org/2000/svg" xmlns:xlink="http://www.w3.org/1999/xlink">
    <!-- Generator: Sketch 41 (35326) - http://www.bohemiancoding.com/sketch -->
    <title>users-2-small</title>
    <desc>Created with Sketch.</desc>
    <defs></defs>
    <g id="Artboards" stroke="none" stroke-width="1" fill="none" fill-rule="evenodd" stroke-linecap="round" stroke-linejoin="round">
        <g id="users-2-small" stroke-width="2" stroke="#62748C">
            <g id="users-24px-outline_multiple-11" transform="translate(1.000000, 1.000000)">
                <g id="Group">
                    <path d="M3,6 L3,6 C1.9,6 1,5.1 1,4 L1,4 C1,2.9 1.9,2 3,2 L3,2 C4.1,2 5,2.9 5,4 L5,4 C5,5.1 4.1,6 3,6 L3,6 Z" id="Shape" fill="#FFFFFF"></path>
                    <polyline id="Shape" points="6 15 6 20 2 20 2 16 0 13 0 9 6 9"></polyline>
                    <path d="M19,6 L19,6 C20.1,6 21,5.1 21,4 L21,4 C21,2.9 20.1,2 19,2 L19,2 C17.9,2 17,2.9 17,4 L17,4 C17,5.1 17.9,6 19,6 L19,6 Z" id="Shape" fill="#FFFFFF"></path>
                    <polyline id="Shape" points="16 15 16 20 20 20 20 16 22 13 22 9 16 9"></polyline>
                    <path d="M11,6 L11,6 C9.3,6 8,4.7 8,3 L8,3 C8,1.3 9.3,0 11,0 L11,0 C12.7,0 14,1.3 14,3 L14,3 C14,4.7 12.7,6 11,6 L11,6 Z" id="Shape" fill="#B6C8F9"></path>
                    <polygon id="Shape" fill="#B6C8F9" points="13 22 9 22 9 18 6 15 6 9 16 9 16 15 13 18"></polygon>
                </g>
            </g>
        </g>
    </g>
</svg>