<?xml version="1.0" encoding="UTF-8"?>
<svg width="24px" height="24px" viewBox="0 0 24 24" version="1.1" xmlns="http://www.w3.org/2000/svg" xmlns:xlink="http://www.w3.org/1999/xlink">
    <!-- Generator: Sketch 41 (35326) - http://www.bohemiancoding.com/sketch -->
    <title>typerwriter-small</title>
    <desc>Created with Sketch.</desc>
    <defs>
        <rect id="path-1" x="1" y="22" width="22" height="2"></rect>
        <mask id="mask-2" maskContentUnits="userSpaceOnUse" maskUnits="objectBoundingBox" x="0" y="0" width="22" height="2" fill="white">
            <use xlink:href="#path-1"></use>
        </mask>
    </defs>
    <g id="Artboards" stroke="none" stroke-width="1" fill="none" fill-rule="evenodd">
        <g id="typerwriter-small" stroke="#62748C" stroke-width="2">
            <g id="Page-1" transform="translate(0.000000, 1.000000)" stroke-linejoin="round">
                <path d="M20,23 L20,16.25 C20,15.0125 19.1529412,14 18.1176471,14 L5.88235294,14 C4.84705882,14 4,15.0125 4,16.25 L4,23" id="Stroke-4" stroke-linecap="round" fill="#B6C8F9"></path>
                <polygon id="Stroke-24" fill="#B6C8F9" points="19.8171429 14 22 14 22 10 2 10 2 14 4.14285714 14"></polygon>
                <path d="M0.5,12 L1.5,12" id="Stroke-30" stroke-linecap="round"></path>
                <path d="M22.5,12 L23.5,12" id="Stroke-32" stroke-linecap="round"></path>
                <polygon id="Stroke-34" stroke-linecap="round" fill="#FFFFFF" points="16.1538462 0 6 0 6 10 18 10 18 2"></polygon>
                <polygon id="Stroke-36" stroke-linecap="round" fill="#FFFFFF" points="13.6 17 9.4 17 8 14 15 14"></polygon>
            </g>
            <use id="Rectangle-19" mask="url(#mask-2)" fill="#D8D8D8" xlink:href="#path-1"></use>
        </g>
    </g>
</svg>