<?xml version="1.0" encoding="UTF-8"?>
<svg width="24px" height="24px" viewBox="0 0 24 24" version="1.1" xmlns="http://www.w3.org/2000/svg" xmlns:xlink="http://www.w3.org/1999/xlink">
    <!-- Generator: Sketch 41 (35326) - http://www.bohemiancoding.com/sketch -->
    <title>wallet-small</title>
    <desc>Created with Sketch.</desc>
    <defs></defs>
    <g id="Artboards" stroke="none" stroke-width="1" fill="none" fill-rule="evenodd" stroke-linecap="round" stroke-linejoin="round">
        <g id="wallet-small" stroke-width="2">
            <g id="business-24px-outline_wallet-43" transform="translate(1.000000, 1.000000)">
                <g id="Group">
                    <path d="M15,4 L15,0 L2,0 C0.9,0 0,0.9 0,2 L0,2 C0,3.1 0.9,4 2,4" id="Shape" stroke="#A0754C" fill="#DEBA91"></path>
                    <path d="M20,11 L20,4 L2,4 C0.9,4 0,3.1 0,2 L0,19 C0,20.7 1.3,22 3,22 L20,22 L20,15" id="Shape" stroke="#A0754C" fill="#DEBA91"></path>
                    <path d="M22,15 L17,15 C15.9,15 15,14.1 15,13 L15,13 C15,11.9 15.9,11 17,11 L22,11 L22,15 L22,15 Z" id="Shape" stroke="#A6A05A" fill="#FFF49A"></path>
                </g>
            </g>
        </g>
    </g>
</svg>