<?xml version="1.0" encoding="UTF-8"?>
<svg width="46px" height="46px" viewBox="0 0 46 46" version="1.1" xmlns="http://www.w3.org/2000/svg" xmlns:xlink="http://www.w3.org/1999/xlink">
    <!-- Generator: Sketch 41 (35326) - http://www.bohemiancoding.com/sketch -->
    <title>wallet</title>
    <desc>Created with Sketch.</desc>
    <defs></defs>
    <g id="Artboards" stroke="none" stroke-width="1" fill="none" fill-rule="evenodd" stroke-linecap="round" stroke-linejoin="round">
        <g id="wallet" stroke-width="2">
            <g id="business-48px-outline_wallet-44" transform="translate(1.000000, 1.000000)">
                <g id="Group">
                    <path d="M30,8 L30,0 L4,0 C1.8,0 0,1.8 0,4 L0,4 C0,6.2 1.8,8 4,8" id="Shape" stroke="#A0754C" fill="#DEBA91"></path>
                    <path d="M40,22 L40,8 L4,8 C1.8,8 0,6.2 0,4 L0,38 C0,41.3 2.7,44 6,44 L40,44 L40,30" id="Shape" stroke="#A0754C" fill="#DEBA91"></path>
                    <path d="M44,30 L34,30 C31.8,30 30,28.2 30,26 L30,26 C30,23.8 31.8,22 34,22 L44,22 L44,30 L44,30 Z" id="Shape" stroke="#A6A05A" fill="#FFF49A"></path>
                    <path d="M0,15 L5,15" id="Shape" stroke="#A0754C"></path>
                    <path d="M13,15 L16,15" id="Shape" stroke="#A0754C"></path>
                    <path d="M24,15 L27,15" id="Shape" stroke="#A0754C"></path>
                    <path d="M35,15 L40,15" id="Shape" stroke="#A0754C"></path>
                    <path d="M0,37 L5,37" id="Shape" stroke="#A0754C"></path>
                    <path d="M13,37 L16,37" id="Shape" stroke="#A0754C"></path>
                    <path d="M24,37 L27,37" id="Shape" stroke="#A0754C"></path>
                    <path d="M35,37 L40,37" id="Shape" stroke="#A0754C"></path>
                </g>
            </g>
        </g>
    </g>
</svg>