<svg viewBox="0 0 198 55" xmlns="http://www.w3.org/2000/svg"><g fill="#436CF2" fill-rule="evenodd"><path d="M27.024 54.845C11.65 54.845.23 43.005.23 28.038v-.15C.231 13.07 11.426.932 27.471.932c9.852 0 15.748 3.276 20.599 8.042l-7.314 8.415c-4.03-3.649-8.135-5.883-13.359-5.883-8.807 0-15.15 7.298-15.15 16.233v.15c0 8.935 6.194 16.382 15.15 16.382 5.97 0 9.627-2.383 13.732-6.106l7.314 7.371c-5.373 5.734-11.344 9.31-21.42 9.31M49.487.372H60.83v54.36H49.487zM81.876 22.378c-4.702 0-7.762 3.35-8.658 8.49H90.31c-.671-5.064-3.657-8.49-8.433-8.49m19.33 15.563H73.367c1.12 5.138 4.702 7.819 9.777 7.819 3.806 0 6.567-1.191 9.702-4.096L99.34 47.4c-3.732 4.616-9.105 7.446-16.345 7.446-12.015 0-20.896-8.415-20.896-20.627v-.149c0-11.393 8.134-20.776 19.777-20.776 13.36 0 19.479 10.351 19.479 21.67v.149c0 1.117-.075 1.787-.15 2.83M122.93 54.64H112.63L96.883 14.427H108.9l8.956 26.733 9.03-26.733h11.793L122.93 54.639M153.377 22.378c-4.702 0-7.762 3.35-8.658 8.49h17.09c-.67-5.064-3.656-8.49-8.432-8.49m19.33 15.563h-27.839c1.12 5.138 4.702 7.819 9.777 7.819 3.806 0 6.568-1.191 9.702-4.096l6.493 5.735c-3.731 4.616-9.105 7.446-16.344 7.446-12.016 0-20.897-8.415-20.897-20.627v-.149c0-11.393 8.135-20.776 19.778-20.776 13.359 0 19.478 10.351 19.478 21.67v.149c0 1.117-.074 1.787-.149 2.83M197.334 25.913c-7.538 0-12.165 4.543-12.165 14.074v14.745h-11.344V14.818h11.344v8.042c2.313-5.51 6.045-9.085 12.762-8.787v11.84h-.597"/></g></svg>
