<svg width="12" height="12" viewBox="0 0 12 12" fill="none" xmlns="http://www.w3.org/2000/svg">
  <path d="M2.83594 11L3.54688 10.2891L1.71094 8.45312L1 9.16406V10H2V11H2.83594ZM6.92188 3.75C6.92188 3.63542 6.86458 3.57812 6.75 3.57812C6.69792 3.57812 6.65365 3.59635 6.61719 3.63281L2.38281 7.86719C2.34635 7.90365 2.32813 7.94792 2.32813 8C2.32813 8.11458 2.38542 8.17187 2.5 8.17187C2.55208 8.17187 2.59635 8.15365 2.63281 8.11719L6.86719 3.88281C6.90365 3.84635 6.92188 3.80208 6.92188 3.75ZM6.5 2.25L9.75 5.5L3.25 12H0V8.75L6.5 2.25ZM11.8359 3C11.8359 3.27604 11.7396 3.51042 11.5469 3.70312L10.25 5L7 1.75L8.29688 0.460937C8.48438 0.26302 8.71875 0.164062 9 0.164062C9.27604 0.164062 9.51302 0.26302 9.71094 0.460937L11.5469 2.28906C11.7396 2.49219 11.8359 2.72917 11.8359 3Z" fill="#A8AEBA"/>
</svg>
