<svg width="11" height="11" viewBox="0 0 11 11" fill="none" xmlns="http://www.w3.org/2000/svg">
  <path d="M10.3714 5.10714V6.52143C10.3714 6.71786 10.3027 6.88482 10.1652 7.02232C10.0277 7.15982 9.86072 7.22857 9.66429 7.22857H6.6V10.2929C6.6 10.4893 6.53125 10.6562 6.39375 10.7937C6.25625 10.9312 6.08929 11 5.89286 11H4.47857C4.28214 11 4.11518 10.9312 3.97768 10.7937C3.84018 10.6562 3.77143 10.4893 3.77143 10.2929V7.22857H0.707143C0.510714 7.22857 0.34375 7.15982 0.20625 7.02232C0.06875 6.88482 0 6.71786 0 6.52143V5.10714C0 4.91071 0.06875 4.74375 0.20625 4.60625C0.34375 4.46875 0.510714 4.4 0.707143 4.4H3.77143V1.33571C3.77143 1.13928 3.84018 0.97232 3.97768 0.83482C4.11518 0.69732 4.28214 0.62857 4.47857 0.62857H5.89286C6.08929 0.62857 6.25625 0.69732 6.39375 0.83482C6.53125 0.97232 6.6 1.13928 6.6 1.33571V4.4H9.66429C9.86072 4.4 10.0277 4.46875 10.1652 4.60625C10.3027 4.74375 10.3714 4.91071 10.3714 5.10714Z" fill="#436CF2"/>
</svg>
