<svg width="24" height="24" viewBox="0 0 24 24" fill="none" xmlns="http://www.w3.org/2000/svg">
  <circle cx="12" cy="12" r="12" fill="#436CF2"/>
  <path d="M16.8125 5.78795C16.9598 5.89509 17.0201 6.03795 16.9933 6.21652L15.279 16.5022C15.2567 16.6317 15.1853 16.7321 15.0647 16.8036C15.0022 16.8393 14.933 16.8571 14.8571 16.8571C14.808 16.8571 14.7545 16.846 14.6964 16.8237L11.6629 15.5848L10.0424 17.5603C9.96205 17.6629 9.85268 17.7143 9.71429 17.7143C9.65625 17.7143 9.60714 17.7054 9.56696 17.6875C9.48214 17.6562 9.41295 17.6027 9.35938 17.5268C9.31027 17.4554 9.28571 17.375 9.28571 17.2857V14.9487L15.0714 7.85714L7.91295 14.0513L5.26786 12.9665C5.10268 12.904 5.01339 12.7812 5 12.5982C4.99107 12.4196 5.0625 12.2879 5.21429 12.2031L16.3571 5.77455C16.4241 5.73437 16.4955 5.71428 16.5714 5.71428C16.6607 5.71428 16.7411 5.73884 16.8125 5.78795Z" fill="white"/>
</svg>
