<svg width="24" height="24" viewBox="0 0 24 24" fill="none" xmlns="http://www.w3.org/2000/svg">
  <rect width="24" height="24" rx="4" fill="#436CF2"/>
  <path d="M16.8125 5.78795C16.7455 5.74107 16.6585 5.71428 16.5714 5.71428C16.4978 5.71428 16.4241 5.73437 16.3571 5.77455L5.21429 12.2031C5.07366 12.2835 4.9933 12.4375 5 12.5982C5.01339 12.7656 5.11384 12.9062 5.26786 12.9665L7.91295 14.0513L15.0714 7.85714L9.28571 14.9487V17.2857C9.28571 17.4665 9.39955 17.6272 9.56696 17.6875C9.61384 17.7076 9.66741 17.7143 9.71429 17.7143C9.84152 17.7143 9.96205 17.6607 10.0424 17.5603L11.6629 15.5848L14.6964 16.8237C14.75 16.8438 14.8036 16.8571 14.8571 16.8571C14.9308 16.8571 15.0045 16.8371 15.0647 16.8036C15.1786 16.7366 15.2589 16.6295 15.279 16.5022L16.9933 6.21652C17.0201 6.04911 16.9531 5.88839 16.8125 5.78795Z" fill="white"/>
</svg>
