<?xml version="1.0" encoding="UTF-8"?>
<svg width="520px" height="351px" viewBox="0 0 520 351" version="1.1" xmlns="http://www.w3.org/2000/svg" xmlns:xlink="http://www.w3.org/1999/xlink">
    <!-- Generator: Sketch 41.2 (35397) - http://www.bohemiancoding.com/sketch -->
    <title>layout_profile</title>
    <desc>Created with Sketch.</desc>
    <defs></defs>
    <g id="Page-1" stroke="none" stroke-width="1" fill="none" fill-rule="evenodd">
        <g id="layout_profile" transform="translate(1.000000, 1.000000)">
            <rect id="Rectangle" stroke="#B5BCCA" fill="#FFFFFF" opacity="0.5" x="0" y="0" width="518" height="349"></rect>
            <rect id="Rectangle-Copy-2" stroke="#B5BCCA" fill="#FAFCFC" opacity="0.5" x="0" y="20.5884892" width="73.0133333" height="328.411511"></rect>
            <rect id="Rectangle-Copy-3" stroke="#B5BCCA" fill="#FFFFFF" x="73.0133333" y="20.5884892" width="444.986667" height="328.411511"></rect>
            <rect id="Rectangle-Copy-5" stroke="#B5BCCA" fill="#FFFFFF" opacity="0.5" x="96.4653829" y="130" width="390.581999" height="87" rx="3"></rect>
            <rect id="Rectangle-Copy-6" stroke="#B5BCCA" fill="#FFFFFF" opacity="0.5" x="96.4653829" y="227" width="390.581999" height="87" rx="3"></rect>
            <rect id="Rectangle-Copy" stroke="#B5BCCA" fill="#4274F6" x="0" y="0" width="518" height="20.5884892"></rect>
            <g id="Group" transform="translate(93.000000, 57.000000)" stroke="#B5BCCA">
                <path d="M0.794073437,1.25 L19,1.25" id="Path-2" stroke-width="0.5"></path>
                <path d="M0.794073437,6.41666667 L36,6.41666667" id="Path-2-Copy"></path>
            </g>
            <g id="Group-Copy-4" transform="translate(199.000000, 57.000000)" stroke="#B5BCCA">
                <path d="M0.794073437,1.25 L19,1.25" id="Path-2" stroke-width="0.5"></path>
                <path d="M0.794073437,6.41666667 L36,6.41666667" id="Path-2-Copy"></path>
            </g>
            <g id="Group-Copy-5" transform="translate(305.000000, 57.000000)" stroke="#B5BCCA">
                <path d="M0.794073437,1.25 L19,1.25" id="Path-2" stroke-width="0.5"></path>
                <path d="M0.794073437,6.41666667 L36,6.41666667" id="Path-2-Copy"></path>
            </g>
            <g id="Group-Copy-6" transform="translate(411.000000, 57.000000)" stroke="#B5BCCA">
                <path d="M0.794073437,1.25 L19,1.25" id="Path-2" stroke-width="0.5"></path>
                <path d="M0.794073437,6.41666667 L36,6.41666667" id="Path-2-Copy"></path>
            </g>
            <path d="M93,38.5 L277.5,38.5" id="Path-3" stroke="#B5BCCA" stroke-width="3"></path>
            <path d="M93,96.5 L132.5,96.5" id="Path-3-Copy-4" stroke="#B5BCCA" stroke-width="3"></path>
            <path d="M153,96.5 L192.5,96.5" id="Path-3-Copy-5" stroke="#B5BCCA" stroke-width="3" opacity="0.445538949"></path>
            <path d="M213,96.5 L252.5,96.5" id="Path-3-Copy-6" stroke="#B5BCCA" stroke-width="3" opacity="0.445538949"></path>
            <path d="M273,96.5 L312.5,96.5" id="Path-3-Copy-7" stroke="#B5BCCA" stroke-width="3" opacity="0.445538949"></path>
            <path d="M8,39.75 L62,39.75" id="Path-3-Copy-2" stroke="#B5BCCA" stroke-width="1.5"></path>
            <path d="M8,99.75 L62,99.75" id="Path-3-Copy-13" stroke="#B5BCCA" stroke-width="1.5"></path>
            <path d="M8,49.5 L34,49.5" id="Path-3-Copy-3" stroke="#B5BCCA"></path>
            <path d="M8,59.5 L45.5,59.5" id="Path-3-Copy-9" stroke="#B5BCCA"></path>
            <path d="M8,69.5 L45.5,69.5" id="Path-3-Copy-10" stroke="#B5BCCA"></path>
            <path d="M8,79.5 L45.5,79.5" id="Path-3-Copy-11" stroke="#B5BCCA"></path>
            <path d="M8,89.5 L45.5,89.5" id="Path-3-Copy-12" stroke="#B5BCCA"></path>
            <path d="M8,159.75 L62,159.75" id="Path-3-Copy-19" stroke="#B5BCCA" stroke-width="1.5"></path>
            <path d="M8,109.5 L34,109.5" id="Path-3-Copy-18" stroke="#B5BCCA"></path>
            <path d="M8,119.5 L45.5,119.5" id="Path-3-Copy-17" stroke="#B5BCCA"></path>
            <path d="M8,129.5 L45.5,129.5" id="Path-3-Copy-16" stroke="#B5BCCA"></path>
            <path d="M8,139.5 L45.5,139.5" id="Path-3-Copy-15" stroke="#B5BCCA"></path>
            <path d="M8,149.5 L45.5,149.5" id="Path-3-Copy-14" stroke="#B5BCCA"></path>
            <path d="M8,219.75 L62,219.75" id="Path-3-Copy-25" stroke="#B5BCCA" stroke-width="1.5"></path>
            <path d="M8,169.5 L34,169.5" id="Path-3-Copy-24" stroke="#B5BCCA"></path>
            <path d="M8,179.5 L45.5,179.5" id="Path-3-Copy-23" stroke="#B5BCCA"></path>
            <path d="M8,189.5 L45.5,189.5" id="Path-3-Copy-22" stroke="#B5BCCA"></path>
            <path d="M8,199.5 L45.5,199.5" id="Path-3-Copy-21" stroke="#B5BCCA"></path>
            <path d="M8,209.5 L45.5,209.5" id="Path-3-Copy-20" stroke="#B5BCCA"></path>
            <path d="M8,279.75 L62,279.75" id="Path-3-Copy-31" stroke="#B5BCCA" stroke-width="1.5"></path>
            <path d="M8,229.5 L34,229.5" id="Path-3-Copy-30" stroke="#B5BCCA"></path>
            <path d="M8,239.5 L45.5,239.5" id="Path-3-Copy-29" stroke="#B5BCCA"></path>
            <path d="M8,249.5 L45.5,249.5" id="Path-3-Copy-28" stroke="#B5BCCA"></path>
            <path d="M8,259.5 L45.5,259.5" id="Path-3-Copy-27" stroke="#B5BCCA"></path>
            <path d="M8,269.5 L45.5,269.5" id="Path-3-Copy-26" stroke="#B5BCCA"></path>
            <path d="M8,339.75 L62,339.75" id="Path-3-Copy-37" stroke="#B5BCCA" stroke-width="1.5"></path>
            <path d="M8,289.5 L34,289.5" id="Path-3-Copy-36" stroke="#B5BCCA"></path>
            <path d="M8,299.5 L45.5,299.5" id="Path-3-Copy-35" stroke="#B5BCCA"></path>
            <path d="M8,309.5 L45.5,309.5" id="Path-3-Copy-34" stroke="#B5BCCA"></path>
            <path d="M8,319.5 L45.5,319.5" id="Path-3-Copy-33" stroke="#B5BCCA"></path>
            <path d="M8,329.5 L45.5,329.5" id="Path-3-Copy-32" stroke="#B5BCCA"></path>
            <path d="M84,113.333333 L500.897807,113.333333" id="Path-3-Copy" stroke="#E3E6EB" stroke-width="2"></path>
            <path d="M84,114 L143,114" id="Path-3-Copy-8" stroke="#B5BCCA" stroke-width="2"></path>
        </g>
    </g>
</svg>