<svg width="32" height="32" viewBox="0 0 32 32" fill="none" xmlns="http://www.w3.org/2000/svg">
<ellipse rx="1.76928" ry="1.76355" transform="matrix(0.961538 -0.274663 0.276613 0.960979 23.5891 13.7797)" fill="#A8AEBA"/>
<path d="M6.90431 18.2188C6.29539 16.1033 7.51767 13.8983 9.63435 13.2936L13.1423 12.2916L15.3474 19.9523L11.8395 20.9544C9.72277 21.559 7.51323 20.3342 6.90431 18.2188Z" fill="#A8AEBA"/>
<path d="M13.143 12.2917C15.9443 11.3491 17.4641 9.58596 19.4693 7.6082C20.3831 6.70697 21.8777 7.15309 22.233 8.38746L25.1268 18.4408C25.4839 19.6813 24.4425 20.8498 23.1854 20.5516C20.5107 19.917 18.3809 19.234 15.3481 19.9524L13.143 12.2917Z" fill="#E3E6EB"/>
<rect width="1.45413" height="15.2189" rx="0.727065" transform="matrix(0.961538 -0.274663 0.276613 0.960979 20.1797 6.513)" fill="#A8AEBA"/>
<path d="M10.4539 21.3503L14.6485 20.1522L15.5486 23.2793C15.8818 24.4369 15.2129 25.6436 14.0546 25.9745C12.8963 26.3053 11.6872 25.6351 11.354 24.4775L10.4539 21.3503Z" fill="#E3E6EB"/>
<circle cx="16" cy="16" r="15.5" stroke="white"/>
<path d="M27 5L5 27" stroke="white"/>
</svg>
