<svg width="32" height="32" viewBox="0 0 32 32" fill="none" xmlns="http://www.w3.org/2000/svg">
<ellipse rx="1.76928" ry="1.76355" transform="matrix(0.961538 -0.274663 0.276613 0.960979 23.5892 13.7797)" fill="#A8AEBA"/>
<path d="M6.90455 18.2188C6.29563 16.1033 7.51791 13.8983 9.63459 13.2936L13.1426 12.2916L15.3477 19.9523L11.8397 20.9544C9.72301 21.559 7.51348 20.3342 6.90455 18.2188Z" fill="#A8AEBA"/>
<path d="M13.1433 12.2917C15.9447 11.3491 17.4645 9.58596 19.4697 7.6082C20.3834 6.70697 21.8781 7.15309 22.2334 8.38746L25.1272 18.4408C25.4843 19.6813 24.4429 20.8498 23.1858 20.5516C20.511 19.917 18.3813 19.234 15.3484 19.9524L13.1433 12.2917Z" fill="#E3E6EB"/>
<rect width="1.45413" height="15.2189" rx="0.727065" transform="matrix(0.961538 -0.274663 0.276613 0.960979 20.1799 6.513)" fill="#A8AEBA"/>
<path d="M10.4541 21.3503L14.6487 20.1522L15.5488 23.2793C15.8821 24.4369 15.2132 25.6436 14.0549 25.9745C12.8966 26.3053 11.6875 25.6351 11.3542 24.4775L10.4541 21.3503Z" fill="#E3E6EB"/>
<circle cx="16" cy="16" r="15.5" stroke="#A8AEBA"/>
<path d="M27 5L5 27" stroke="#A8AEBA"/>
</svg>
